G04 (created by PCBNEW (2013-mar-13)-testing) date Tue 03 Jun 2014 05:42:26 PM CEST*
%MOIN*%
G04 Gerber Fmt 3.4, Leading zero omitted, Abs format*
%FSLAX34Y34*%
G01*
G70*
G90*
G04 APERTURE LIST*
%ADD10C,0.005906*%
%ADD11C,0.002362*%
%ADD12C,0.078740*%
%ADD13C,0.244220*%
%ADD14R,0.068000X0.068000*%
%ADD15C,0.068000*%
%ADD16O,0.055244X0.035559*%
%ADD17O,0.049339X0.033591*%
%ADD18C,0.126110*%
%ADD19C,0.078866*%
%ADD20C,0.067055*%
%ADD21C,0.039496*%
%ADD22C,0.063118*%
%ADD23C,0.047370*%
%ADD24R,0.039496X0.094614*%
%ADD25R,0.047370X0.045402*%
%ADD26R,0.065087X0.053276*%
%ADD27R,0.053276X0.065087*%
%ADD28R,0.045402X0.047370*%
%ADD29R,0.078866X0.039496*%
%ADD30R,0.114299X0.053276*%
%ADD31R,0.053276X0.078866*%
%ADD32R,0.019811X0.070992*%
%ADD33R,0.141858X0.102488*%
%ADD34R,0.031622X0.069024*%
%ADD35R,0.086740X0.086740*%
%ADD36C,0.086740*%
%ADD37R,0.074929X0.086740*%
%ADD38C,0.027685*%
%ADD39R,0.033591X0.041465*%
%ADD40R,0.041465X0.017843*%
%ADD41R,0.017843X0.041465*%
%ADD42R,0.143827X0.143827*%
%ADD43C,0.204850*%
G04 APERTURE END LIST*
G54D10*
G54D11*
X87992Y-50590D02*
X87992Y-32086D01*
X28937Y-50590D02*
X87992Y-50590D01*
X28937Y-32086D02*
X28937Y-50590D01*
X87992Y-32086D02*
X28937Y-32086D01*
G54D12*
X87204Y-49803D03*
X29724Y-32874D03*
G54D13*
X81889Y-41338D03*
X35039Y-41338D03*
G54D14*
X36574Y-43200D03*
G54D15*
X36574Y-44200D03*
G54D16*
X29606Y-42549D03*
X29606Y-44694D03*
G54D17*
X30799Y-44576D03*
X30799Y-42667D03*
G54D18*
X31496Y-37598D03*
G54D19*
X33196Y-38188D03*
X33196Y-37007D03*
X35019Y-38661D03*
X35019Y-37677D03*
X35019Y-36692D03*
X36318Y-38661D03*
X36318Y-37677D03*
X36318Y-36692D03*
G54D20*
X47677Y-43897D03*
X38149Y-43897D03*
X61574Y-43897D03*
X52047Y-43897D03*
G54D21*
X79881Y-35984D03*
G54D22*
X79724Y-32874D03*
X78937Y-32874D03*
X80511Y-32874D03*
X78149Y-32874D03*
X75590Y-32874D03*
X74803Y-32874D03*
X76377Y-32874D03*
X74015Y-32874D03*
X71456Y-32874D03*
X70669Y-32874D03*
X72244Y-32874D03*
X69881Y-32874D03*
X69094Y-32874D03*
X68307Y-32874D03*
X65748Y-32874D03*
X64960Y-32874D03*
X66535Y-32874D03*
X64173Y-32874D03*
X63385Y-32874D03*
X62598Y-32874D03*
X61811Y-32874D03*
X61023Y-32874D03*
G54D21*
X69842Y-44251D03*
X75551Y-44842D03*
G54D23*
X71521Y-48582D03*
X72021Y-48582D03*
X72521Y-48582D03*
X73021Y-48582D03*
X73521Y-48582D03*
X71021Y-48582D03*
X70521Y-48582D03*
X70021Y-48582D03*
G54D24*
X39409Y-39173D03*
X39409Y-37913D03*
G54D25*
X39055Y-33543D03*
X39055Y-34173D03*
X39763Y-33543D03*
X39763Y-34173D03*
G54D26*
X40748Y-33543D03*
X40748Y-34251D03*
G54D25*
X41692Y-33543D03*
X41692Y-34173D03*
X43818Y-33543D03*
X43818Y-34173D03*
X44645Y-33543D03*
X44645Y-34173D03*
X45629Y-33543D03*
X45629Y-34173D03*
X46614Y-33543D03*
X46614Y-34173D03*
G54D27*
X48228Y-33543D03*
X47519Y-33543D03*
X50984Y-33543D03*
X51692Y-33543D03*
G54D25*
X52952Y-33543D03*
X52952Y-34173D03*
X53661Y-33543D03*
X53661Y-34173D03*
G54D26*
X54645Y-33543D03*
X54645Y-34251D03*
G54D25*
X55590Y-33543D03*
X55590Y-34173D03*
X57598Y-33543D03*
X57598Y-34173D03*
X58425Y-33543D03*
X58425Y-34173D03*
X59251Y-33543D03*
X59251Y-34173D03*
X60078Y-33543D03*
X60078Y-34173D03*
X59448Y-37401D03*
X59448Y-38031D03*
X60078Y-37401D03*
X60078Y-38031D03*
X60708Y-36771D03*
X60708Y-37401D03*
X61338Y-36771D03*
X61338Y-37401D03*
G54D28*
X62913Y-36771D03*
X63543Y-36771D03*
G54D29*
X62125Y-37938D03*
X62125Y-37438D03*
X62125Y-38438D03*
X62125Y-38938D03*
X64330Y-37438D03*
X64330Y-37938D03*
X64330Y-38438D03*
X64330Y-38938D03*
G54D18*
X31496Y-37598D03*
G54D19*
X29795Y-38188D03*
X29795Y-37007D03*
G54D25*
X37755Y-41023D03*
X37755Y-41653D03*
G54D30*
X39370Y-40944D03*
X39370Y-42125D03*
X46456Y-40944D03*
X46456Y-42125D03*
G54D31*
X43110Y-38385D03*
X41929Y-38385D03*
G54D28*
X49409Y-39330D03*
X48779Y-39330D03*
G54D31*
X43110Y-42716D03*
X41929Y-42716D03*
G54D32*
X43041Y-41653D03*
X43297Y-41653D03*
X43553Y-41653D03*
X43809Y-41653D03*
X44064Y-41653D03*
X42785Y-41653D03*
X42529Y-41653D03*
X42273Y-41653D03*
X42017Y-41653D03*
X41761Y-41653D03*
X41761Y-39448D03*
X42017Y-39448D03*
X42273Y-39448D03*
X42529Y-39448D03*
X42785Y-39448D03*
X43041Y-39448D03*
X43297Y-39448D03*
X43553Y-39448D03*
X43809Y-39448D03*
X44064Y-39448D03*
G54D33*
X42913Y-40551D03*
G54D28*
X50669Y-39330D03*
X51299Y-39330D03*
G54D25*
X51417Y-41692D03*
X51417Y-41062D03*
G54D34*
X50789Y-42440D03*
X50789Y-40314D03*
X50289Y-40314D03*
X50289Y-42440D03*
X49789Y-42440D03*
X49789Y-40314D03*
X49289Y-40314D03*
X49289Y-42440D03*
G54D28*
X49724Y-43228D03*
X49094Y-43228D03*
X50354Y-43228D03*
X50984Y-43228D03*
G54D35*
X30118Y-47047D03*
G54D36*
X50590Y-47047D03*
G54D27*
X71102Y-49448D03*
X70393Y-49448D03*
G54D28*
X76220Y-47480D03*
X75590Y-47480D03*
X75590Y-48110D03*
X76220Y-48110D03*
X71259Y-47480D03*
X71889Y-47480D03*
X70629Y-47480D03*
X70000Y-47480D03*
G54D37*
X71594Y-46692D03*
X70295Y-46692D03*
G54D25*
X69685Y-44803D03*
X69685Y-45433D03*
X70590Y-44803D03*
X70590Y-45433D03*
X73228Y-45433D03*
X73228Y-44803D03*
X72165Y-45433D03*
X72165Y-44803D03*
X73858Y-44803D03*
X73858Y-45433D03*
G54D26*
X74566Y-44842D03*
X74566Y-45551D03*
G54D28*
X84370Y-42716D03*
X83740Y-42716D03*
X86338Y-42716D03*
X85708Y-42716D03*
G54D38*
X71496Y-39094D03*
X71181Y-39094D03*
X71811Y-39094D03*
X72125Y-39094D03*
X72440Y-39094D03*
X72755Y-39094D03*
X73070Y-39094D03*
X73385Y-39094D03*
X73700Y-39094D03*
X69606Y-39094D03*
X69921Y-39094D03*
X70236Y-39094D03*
X70551Y-39094D03*
X70866Y-39094D03*
X69606Y-39409D03*
X69921Y-39409D03*
X70236Y-39409D03*
X70551Y-39409D03*
X70866Y-39409D03*
X71181Y-39409D03*
X71496Y-39409D03*
X71811Y-39409D03*
X72125Y-39409D03*
X72440Y-39409D03*
X72755Y-39409D03*
X73070Y-39409D03*
X73385Y-39409D03*
X73700Y-39409D03*
X69606Y-39724D03*
X69921Y-39724D03*
X70236Y-39724D03*
X70551Y-39724D03*
X70866Y-39724D03*
X71181Y-39724D03*
X71496Y-39724D03*
X71811Y-39724D03*
X72125Y-39724D03*
X72440Y-39724D03*
X72755Y-39724D03*
X73070Y-39724D03*
X73385Y-39724D03*
X73700Y-39724D03*
X69606Y-40039D03*
X69921Y-40039D03*
X70236Y-40039D03*
X70551Y-40039D03*
X70866Y-40039D03*
X72440Y-40039D03*
X72755Y-40039D03*
X73070Y-40039D03*
X73385Y-40039D03*
X73700Y-40039D03*
X69606Y-40354D03*
X69921Y-40354D03*
X70236Y-40354D03*
X70551Y-40354D03*
X72755Y-40354D03*
X73070Y-40354D03*
X73385Y-40354D03*
X73700Y-40354D03*
X69606Y-40669D03*
X69921Y-40669D03*
X70236Y-40669D03*
X73070Y-40669D03*
X73385Y-40669D03*
X73700Y-40669D03*
X69606Y-40984D03*
X69921Y-40984D03*
X70236Y-40984D03*
X73070Y-40984D03*
X73385Y-40984D03*
X73700Y-40984D03*
X69606Y-41299D03*
X69921Y-41299D03*
X70236Y-41299D03*
X73070Y-41299D03*
X73385Y-41299D03*
X73700Y-41299D03*
X69606Y-41614D03*
X69921Y-41614D03*
X70236Y-41614D03*
X73070Y-41614D03*
X73385Y-41614D03*
X73700Y-41614D03*
X69606Y-41929D03*
X69921Y-41929D03*
X70236Y-41929D03*
X70551Y-41929D03*
X72755Y-41929D03*
X73070Y-41929D03*
X73385Y-41929D03*
X73700Y-41929D03*
X69606Y-42244D03*
X69921Y-42244D03*
X70236Y-42244D03*
X70551Y-42244D03*
X70866Y-42244D03*
X72440Y-42244D03*
X72755Y-42244D03*
X73070Y-42244D03*
X73385Y-42244D03*
X73700Y-42244D03*
X69606Y-42559D03*
X69921Y-42559D03*
X70236Y-42559D03*
X70551Y-42559D03*
X70866Y-42559D03*
X71181Y-42559D03*
X71496Y-42559D03*
X71811Y-42559D03*
X72125Y-42559D03*
X72440Y-42559D03*
X72755Y-42559D03*
X73070Y-42559D03*
X73385Y-42559D03*
X73700Y-42559D03*
X69606Y-42874D03*
X69921Y-42874D03*
X70236Y-42874D03*
X70551Y-42874D03*
X70866Y-42874D03*
X71181Y-42874D03*
X71496Y-42874D03*
X71811Y-42874D03*
X72125Y-42874D03*
X72440Y-42874D03*
X72755Y-42874D03*
X73070Y-42874D03*
X73385Y-42874D03*
X73700Y-42874D03*
X69606Y-43188D03*
X69921Y-43188D03*
X70236Y-43188D03*
X70551Y-43188D03*
X70866Y-43188D03*
X71181Y-43188D03*
X71496Y-43188D03*
X71811Y-43188D03*
X72125Y-43188D03*
X72440Y-43188D03*
X72755Y-43188D03*
X73070Y-43188D03*
X73385Y-43188D03*
X73700Y-43188D03*
G54D25*
X71338Y-37362D03*
X71338Y-36732D03*
G54D26*
X72047Y-37322D03*
X72047Y-36614D03*
G54D25*
X73897Y-35157D03*
X73897Y-35787D03*
X73897Y-36417D03*
X73897Y-37047D03*
G54D28*
X74685Y-37047D03*
X75314Y-37047D03*
G54D25*
X75944Y-35787D03*
X75944Y-36417D03*
G54D39*
X74675Y-35797D03*
X75324Y-35797D03*
X75324Y-36407D03*
X74675Y-36407D03*
G54D28*
X78779Y-37244D03*
X78149Y-37244D03*
X78779Y-36614D03*
X78149Y-36614D03*
G54D40*
X80009Y-36751D03*
X80009Y-36948D03*
X80009Y-37145D03*
X80009Y-36555D03*
G54D41*
X80295Y-36269D03*
X80492Y-36269D03*
X80688Y-36269D03*
X80885Y-36269D03*
X81082Y-36269D03*
X81279Y-36269D03*
X81476Y-36269D03*
X81673Y-36269D03*
G54D40*
X81958Y-37933D03*
X81958Y-36555D03*
X81958Y-36751D03*
X81958Y-36948D03*
X81958Y-37145D03*
X81958Y-37342D03*
X81958Y-37539D03*
X81958Y-37736D03*
G54D41*
X81673Y-38218D03*
X81476Y-38218D03*
X81279Y-38218D03*
X81082Y-38218D03*
X80885Y-38218D03*
X80688Y-38218D03*
X80492Y-38218D03*
X80295Y-38218D03*
G54D40*
X80009Y-37933D03*
X80009Y-37736D03*
X80009Y-37539D03*
X80009Y-37342D03*
G54D42*
X80984Y-37244D03*
G54D25*
X79803Y-34291D03*
X79803Y-34921D03*
X80669Y-34291D03*
X80669Y-34921D03*
G54D27*
X81417Y-34566D03*
X82125Y-34566D03*
G54D26*
X82913Y-34527D03*
X82913Y-33818D03*
G54D25*
X83622Y-34409D03*
X83622Y-33779D03*
G54D27*
X80236Y-39448D03*
X80944Y-39448D03*
G54D26*
X83503Y-38228D03*
X83503Y-38937D03*
G54D25*
X84212Y-38267D03*
X84212Y-38897D03*
G54D28*
X84921Y-38188D03*
X85551Y-38188D03*
X85551Y-37559D03*
X84921Y-37559D03*
X85551Y-36929D03*
X84921Y-36929D03*
X85551Y-36299D03*
X84921Y-36299D03*
X84921Y-35433D03*
X85551Y-35433D03*
X85551Y-34803D03*
X84921Y-34803D03*
X85551Y-34173D03*
X84921Y-34173D03*
X85551Y-33543D03*
X84921Y-33543D03*
G54D25*
X77165Y-40748D03*
X77165Y-41377D03*
G54D28*
X75551Y-39527D03*
X76181Y-39527D03*
G54D27*
X75590Y-40236D03*
X76299Y-40236D03*
G54D28*
X75551Y-40944D03*
X76181Y-40944D03*
G54D27*
X75590Y-41653D03*
X76299Y-41653D03*
G54D28*
X75551Y-42362D03*
X76181Y-42362D03*
X75551Y-42992D03*
X76181Y-42992D03*
X67283Y-43110D03*
X67913Y-43110D03*
X67913Y-42480D03*
X67283Y-42480D03*
X67913Y-41850D03*
X67283Y-41850D03*
X67913Y-40748D03*
X67283Y-40748D03*
X67283Y-40118D03*
X67913Y-40118D03*
X67913Y-39448D03*
X67283Y-39448D03*
X67283Y-38818D03*
X67913Y-38818D03*
X67913Y-38149D03*
X67283Y-38149D03*
X67283Y-37519D03*
X67913Y-37519D03*
G54D22*
X87007Y-34251D03*
X87007Y-35039D03*
X87007Y-37007D03*
X87007Y-37795D03*
X87007Y-39763D03*
X87007Y-40551D03*
G54D43*
X82283Y-49015D03*
X53937Y-49015D03*
X30905Y-34055D03*
M02*
