M48
;DRILL file {Pcbnew (2013-mar-13)-testing} date Fri 06 Jun 2014 02:02:19 PM CEST
;FORMAT={-:-/ absolute / inch / decimal}
FMAT,2
INCH,TZ
T1C0.008
T2C0.012
T3C0.020
T4C0.024
T5C0.026
T6C0.028
T7C0.035
T8C0.040
T9C0.047
T10C0.059
T11C0.118
T12C0.157
%
G90
G05
M72
T1
X3.1299Y-4.3346
X3.1299Y-4.3583
X3.2126Y-4.0512
X3.2717Y-3.3898
X3.2874Y-4.5354
X3.3228Y-3.4409
X3.3228Y-4.1378
X3.3268Y-3.3937
X3.3661Y-4.5157
X3.4291Y-4.5
X3.4961Y-4.3346
X3.5512Y-4.5315
X3.6811Y-3.4213
X3.689Y-3.3543
X3.7008Y-3.7598
X3.7008Y-3.8386
X3.7008Y-3.9173
X3.7008Y-3.9961
X3.7008Y-4.0945
X3.7067Y-4.2185
X3.7598Y-4.0453
X3.7795Y-3.7598
X3.7795Y-3.8386
X3.7795Y-3.9173
X3.7795Y-3.9961
X3.8228Y-4.2283
X3.8386Y-4.0453
X3.8386Y-4.0945
X3.878Y-3.7008
X3.878Y-3.7795
X3.878Y-3.8386
X3.878Y-3.9173
X3.878Y-3.9961
X3.8898Y-4.2972
X3.9055Y-3.4882
X3.9094Y-4.4193
X3.937Y-3.7008
X3.9409Y-4.0453
X3.9606Y-4.3602
X3.9764Y-3.4882
X3.9961Y-3.7008
X3.9961Y-3.7795
X3.9961Y-3.8386
X4.0059Y-3.937
X4.0059Y-3.9961
X4.0059Y-4.0453
X4.0354Y-4.1043
X4.063Y-4.2953
X4.065Y-3.9961
X4.065Y-4.065
X4.0748Y-3.7008
X4.0748Y-3.7795
X4.0748Y-3.8386
X4.0748Y-3.8976
X4.0787Y-4.1969
X4.1083Y-4.3602
X4.1122Y-4.4193
X4.1142Y-4.1043
X4.1339Y-3.7165
X4.1339Y-3.7795
X4.1339Y-3.8386
X4.1339Y-3.8976
X4.1339Y-3.937
X4.1339Y-3.9961
X4.1339Y-4.065
X4.1693Y-3.4882
X4.2126Y-3.7598
X4.252Y-4.0315
X4.252Y-4.0787
X4.2894Y-4.4154
X4.2913Y-4.0315
X4.2913Y-4.0787
X4.311Y-3.7598
X4.3307Y-4.0315
X4.3307Y-4.0787
X4.3898Y-3.7598
X4.3898Y-3.8189
X4.3898Y-3.878
X4.4311Y-4.2441
X4.4311Y-4.4154
X4.4488Y-3.8189
X4.4488Y-3.878
X4.4488Y-3.937
X4.4646Y-3.4882
X4.4803Y-3.8189
X4.4902Y-4.2283
X4.4961Y-4.1831
X4.5079Y-3.8976
X4.5276Y-3.937
X4.5492Y-4.2835
X4.5551Y-3.7362
X4.563Y-3.4882
X4.5906Y-4.3681
X4.6614Y-3.4882
X4.6752Y-4.3681
X4.7579Y-4.2835
X4.7677Y-4.2146
X4.8327Y-4.3425
X4.8386Y-3.9252
X4.874Y-3.6929
X4.878Y-4.4035
X4.9291Y-3.9843
X5.Y-4.3898
X5.0984Y-4.3898
X5.1339Y-3.8819
X5.1693Y-3.9331
X5.1811Y-4.0591
X5.1969Y-4.2126
X5.1969Y-4.2913
X5.2756Y-4.3701
X5.2953Y-3.4882
X5.2992Y-4.0984
X5.2992Y-4.1614
X5.315Y-4.2126
X5.315Y-4.2913
X5.3661Y-3.4882
X5.4331Y-4.2126
X5.5591Y-3.4882
X5.6575Y-4.0591
X5.7677Y-4.0512
X5.8543Y-3.4882
X5.9449Y-3.8425
X5.9488Y-3.4882
X6.0433Y-3.4882
X6.1575Y-3.8465
X6.189Y-3.622
X6.2638Y-3.8937
X6.2677Y-3.7913
X6.6339Y-4.0039
X6.6378Y-3.7362
X6.6772Y-3.8228
X6.6811Y-4.0512
X6.685Y-4.2677
X6.7283Y-4.3701
X6.7323Y-3.4449
X6.7559Y-3.9803
X6.8189Y-3.8465
X6.8228Y-3.9803
X6.8465Y-3.7559
X6.8504Y-4.0669
X6.8583Y-4.5945
X6.9291Y-4.6181
X6.9331Y-3.8661
X6.937Y-4.3189
X6.9685Y-4.6102
X6.9764Y-3.9252
X6.9764Y-3.9567
X6.9764Y-4.0512
X6.9764Y-4.2087
X6.9764Y-4.2717
X7.0079Y-3.9252
X7.0079Y-3.9882
X7.0079Y-4.0512
X7.0079Y-4.1772
X7.0079Y-4.2402
X7.0394Y-3.9252
X7.0394Y-4.0197
X7.0394Y-4.1772
X7.0394Y-4.2087
X7.0394Y-4.3031
X7.0551Y-4.3504
X7.063Y-4.7835
X7.0709Y-3.9252
X7.0709Y-3.9567
X7.0709Y-3.9882
X7.0709Y-4.1772
X7.0709Y-4.2717
X7.0709Y-4.3031
X7.0787Y-4.437
X7.0866Y-3.8858
X7.0866Y-4.5984
X7.0906Y-3.4449
X7.1024Y-4.0197
X7.1024Y-4.2402
X7.1339Y-4.2717
X7.1339Y-4.3031
X7.1496Y-3.7874
X7.1496Y-3.8858
X7.1496Y-3.9961
X7.1654Y-3.9567
X7.1654Y-4.2402
X7.1811Y-3.8228
X7.1811Y-3.9961
X7.1811Y-4.5906
X7.1969Y-4.2402
X7.1969Y-4.2717
X7.1969Y-4.3031
X7.2047Y-3.6024
X7.2047Y-3.8622
X7.2126Y-3.8858
X7.2244Y-4.0157
X7.2283Y-3.8465
X7.2283Y-3.9882
X7.2283Y-4.2717
X7.2441Y-3.8819
X7.248Y-3.7323
X7.252Y-3.6496
X7.2598Y-3.9252
X7.2598Y-3.9567
X7.2598Y-3.9882
X7.2598Y-4.0197
X7.2598Y-4.1772
X7.2598Y-4.2087
X7.2598Y-4.2402
X7.2598Y-4.2717
X7.2598Y-4.3031
X7.2756Y-3.8819
X7.2835Y-4.1299
X7.2913Y-3.9252
X7.2913Y-3.9882
X7.2913Y-4.0197
X7.2913Y-4.1772
X7.2913Y-4.2087
X7.2913Y-4.2402
X7.2913Y-4.2717
X7.3071Y-3.8819
X7.3228Y-3.9882
X7.3228Y-4.0827
X7.3228Y-4.1142
X7.3228Y-4.1457
X7.3228Y-4.2087
X7.3228Y-4.2402
X7.3228Y-4.2717
X7.3228Y-4.3031
X7.3228Y-4.5906
X7.3386Y-3.8819
X7.3386Y-4.3425
X7.3543Y-3.8583
X7.3543Y-3.9252
X7.3543Y-3.9567
X7.3543Y-3.9882
X7.3543Y-4.0197
X7.3543Y-4.0512
X7.3543Y-4.0827
X7.3543Y-4.1457
X7.3543Y-4.1772
X7.3543Y-4.2087
X7.3543Y-4.2717
X7.3543Y-4.3031
X7.3858Y-3.9882
X7.3858Y-4.0512
X7.3858Y-4.0827
X7.3858Y-4.1457
X7.3858Y-4.5866
X7.3937Y-3.9094
X7.4567Y-4.5984
X7.4685Y-4.0236
X7.5039Y-4.063
X7.5039Y-4.2087
X7.5197Y-4.0236
X7.5197Y-4.2559
X7.5197Y-4.2874
X7.5236Y-4.1102
X7.6181Y-3.9134
X7.6299Y-4.6752
X7.6339Y-3.5787
X7.6575Y-4.0945
X7.6614Y-4.811
X7.6772Y-3.6713
X7.6969Y-4.1929
X7.7008Y-4.2362
X7.7028Y-4.3071
X7.7165Y-4.0394
X7.7579Y-3.811
X7.7953Y-3.8898
X7.7953Y-4.4173
X7.8268Y-4.0433
X7.8268Y-4.4173
X7.8701Y-3.5787
X7.874Y-4.0472
X7.937Y-3.3858
X7.9449Y-3.5709
X7.9606Y-3.7913
X7.9685Y-3.7362
X7.9803Y-3.5433
X7.9803Y-4.0197
X8.0236Y-3.8937
X8.0236Y-3.9961
X8.0433Y-3.3917
X8.0591Y-3.685
X8.0591Y-3.7244
X8.0591Y-3.7638
X8.063Y-3.5906
X8.0906Y-3.5709
X8.0906Y-3.5945
X8.0984Y-3.685
X8.0984Y-3.7244
X8.0984Y-3.7638
X8.1378Y-3.685
X8.1378Y-3.7244
X8.1378Y-3.7638
X8.1417Y-3.5236
X8.1417Y-3.8543
X8.1457Y-3.9449
X8.1496Y-3.5945
X8.1909Y-3.8219
X8.2047Y-4.5669
X8.2126Y-3.622
X8.2323Y-3.6929
X8.2362Y-3.6575
X8.2756Y-4.5669
X8.2874Y-3.5197
X8.2913Y-3.3287
X8.3031Y-3.8661
X8.3622Y-3.3287
X8.4252Y-3.6299
X8.437Y-4.2323
X8.4567Y-3.3543
X8.4567Y-3.4173
X8.4567Y-3.4803
X8.4567Y-3.6929
X8.4567Y-3.7559
X8.4646Y-3.8898
X8.4921Y-3.5827
X8.4921Y-3.8583
X8.5945Y-3.3976
X8.5945Y-3.5
X8.5945Y-3.6732
X8.5945Y-3.7756
X8.6339Y-4.2323
X8.6693Y-4.3228
T2
X4.0699Y-3.5089
X4.2677Y-3.3543
X4.3169Y-3.5059
X4.9409Y-3.8228
X5.0669Y-3.752
X5.4596Y-3.5039
X5.6575Y-3.3543
X5.7087Y-3.5039
T3
X6.9843Y-4.4252
X7.5551Y-4.4843
X7.9882Y-3.5984
T4
X7.0022Y-4.8583
X7.0522Y-4.8583
X7.1022Y-4.8583
X7.1522Y-4.8583
X7.2022Y-4.8583
X7.2522Y-4.8583
X7.3022Y-4.8583
X7.3522Y-4.8583
T7
X3.502Y-3.6693
X3.502Y-3.7677
X3.502Y-3.8661
X3.6319Y-3.6693
X3.6319Y-3.7677
X3.6319Y-3.8661
X6.1024Y-3.2874
X6.1811Y-3.2874
X6.2598Y-3.2874
X6.3386Y-3.2874
X6.4173Y-3.2874
X6.4961Y-3.2874
X6.5748Y-3.2874
X6.6535Y-3.2874
X6.8307Y-3.2874
X6.9094Y-3.2874
X6.9882Y-3.2874
X7.0669Y-3.2874
X7.1457Y-3.2874
X7.2244Y-3.2874
X7.4016Y-3.2874
X7.4803Y-3.2874
X7.5591Y-3.2874
X7.6378Y-3.2874
X7.815Y-3.2874
X7.8937Y-3.2874
X7.9724Y-3.2874
X8.0512Y-3.2874
X8.7008Y-3.4252
X8.7008Y-3.5039
X8.7008Y-3.7008
X8.7008Y-3.7795
X8.7008Y-3.9764
X8.7008Y-4.0551
T8
X3.6575Y-4.3201
X3.6575Y-4.4201
T9
X2.9795Y-3.7008
X2.9795Y-3.8189
X3.0118Y-4.7047
X3.3197Y-3.7008
X3.3197Y-3.8189
X5.0591Y-4.7047
T10
X3.815Y-4.3898
X4.7677Y-4.3898
X5.2047Y-4.3898
X6.1575Y-4.3898
T11
X3.0906Y-3.4055
X3.1496Y-3.7598
X3.1496Y-3.7598
X5.3937Y-4.9016
X8.2283Y-4.9016
T12
X3.5039Y-4.1339
X8.189Y-4.1339
T5
X3.0878Y-4.2667G85X3.072Y-4.2667
G05
X3.0878Y-4.4577G85X3.072Y-4.4577
G05
T6
X2.9705Y-4.2549G85X2.9508Y-4.2549
G05
X2.9705Y-4.4695G85X2.9508Y-4.4695
G05
T0
M30
