G04 (created by PCBNEW (2013-mar-13)-testing) date Fri 06 Jun 2014 02:02:15 PM CEST*
%MOIN*%
G04 Gerber Fmt 3.4, Leading zero omitted, Abs format*
%FSLAX34Y34*%
G01*
G70*
G90*
G04 APERTURE LIST*
%ADD10C,0.005906*%
%ADD11C,0.002362*%
%ADD12C,0.236220*%
%ADD13R,0.060000X0.060000*%
%ADD14C,0.060000*%
%ADD15O,0.047244X0.027559*%
%ADD16O,0.041339X0.025591*%
%ADD17C,0.118110*%
%ADD18C,0.070866*%
%ADD19C,0.059055*%
%ADD20C,0.031496*%
%ADD21C,0.055118*%
%ADD22C,0.039370*%
%ADD23R,0.078740X0.078740*%
%ADD24C,0.078740*%
%ADD25C,0.196850*%
%ADD26C,0.016000*%
%ADD27C,0.023622*%
%ADD28C,0.004500*%
G04 APERTURE END LIST*
G54D10*
G54D11*
X87992Y-50590D02*
X87992Y-32086D01*
X28937Y-50590D02*
X87992Y-50590D01*
X28937Y-32086D02*
X28937Y-50590D01*
X87992Y-32086D02*
X28937Y-32086D01*
G54D12*
X81889Y-41338D03*
X35039Y-41338D03*
G54D13*
X36574Y-43200D03*
G54D14*
X36574Y-44200D03*
G54D15*
X29606Y-42549D03*
X29606Y-44694D03*
G54D16*
X30799Y-44576D03*
X30799Y-42667D03*
G54D17*
X31496Y-37598D03*
G54D18*
X33196Y-38188D03*
X33196Y-37007D03*
X35019Y-38661D03*
X35019Y-37677D03*
X35019Y-36692D03*
X36318Y-38661D03*
X36318Y-37677D03*
X36318Y-36692D03*
G54D19*
X47677Y-43897D03*
X38149Y-43897D03*
X61574Y-43897D03*
X52047Y-43897D03*
G54D20*
X79881Y-35984D03*
G54D21*
X79724Y-32874D03*
X78937Y-32874D03*
X80511Y-32874D03*
X78149Y-32874D03*
X75590Y-32874D03*
X74803Y-32874D03*
X76377Y-32874D03*
X74015Y-32874D03*
X71456Y-32874D03*
X70669Y-32874D03*
X72244Y-32874D03*
X69881Y-32874D03*
X69094Y-32874D03*
X68307Y-32874D03*
X65748Y-32874D03*
X64960Y-32874D03*
X66535Y-32874D03*
X64173Y-32874D03*
X63385Y-32874D03*
X62598Y-32874D03*
X61811Y-32874D03*
X61023Y-32874D03*
G54D20*
X69842Y-44251D03*
X75551Y-44842D03*
G54D22*
X71521Y-48582D03*
X72021Y-48582D03*
X72521Y-48582D03*
X73021Y-48582D03*
X73521Y-48582D03*
X71021Y-48582D03*
X70521Y-48582D03*
X70021Y-48582D03*
G54D17*
X31496Y-37598D03*
G54D18*
X29795Y-38188D03*
X29795Y-37007D03*
G54D23*
X30118Y-47047D03*
G54D24*
X50590Y-47047D03*
G54D21*
X87007Y-34251D03*
X87007Y-35039D03*
X87007Y-37007D03*
X87007Y-37795D03*
X87007Y-39763D03*
X87007Y-40551D03*
G54D25*
X82283Y-49015D03*
X53937Y-49015D03*
X30905Y-34055D03*
G54D26*
X70708Y-43031D03*
X72519Y-36496D03*
X72047Y-38622D03*
X41141Y-41043D03*
X40354Y-41043D03*
X40649Y-39960D03*
X41338Y-39960D03*
X41338Y-40649D03*
X40649Y-40649D03*
X40059Y-40452D03*
X39409Y-40452D03*
X38385Y-40452D03*
X37598Y-40452D03*
X40059Y-39370D03*
X40059Y-39960D03*
X38385Y-40944D03*
X37007Y-40944D03*
X37007Y-39960D03*
X37795Y-39960D03*
X38779Y-39960D03*
X38779Y-39173D03*
X37795Y-39173D03*
X37007Y-39173D03*
X37007Y-38385D03*
X37795Y-38385D03*
X37795Y-37598D03*
X37007Y-37598D03*
G54D27*
X76299Y-46751D03*
X77027Y-43070D03*
X77578Y-38110D03*
X72047Y-36023D03*
G54D26*
X67283Y-43700D03*
G54D27*
X61889Y-36220D03*
G54D26*
X76574Y-40944D03*
X71811Y-45905D03*
X71338Y-42716D03*
X71968Y-42716D03*
X73543Y-41771D03*
X73228Y-40826D03*
X69370Y-43188D03*
X67559Y-39803D03*
X71338Y-43031D03*
X71968Y-43031D03*
X84566Y-34803D03*
X84566Y-34173D03*
X84566Y-37559D03*
X84566Y-36929D03*
X73385Y-43425D03*
X72913Y-42716D03*
X70078Y-41771D03*
X72598Y-42086D03*
X70393Y-42086D03*
X76771Y-36712D03*
X70787Y-44370D03*
G54D27*
X81456Y-39448D03*
X83622Y-33287D03*
X82913Y-33287D03*
G54D26*
X83031Y-38661D03*
X84645Y-38897D03*
X81909Y-38218D03*
X81377Y-36850D03*
X80984Y-36850D03*
X80590Y-36850D03*
X80590Y-37637D03*
X81377Y-37637D03*
X81377Y-37244D03*
X80984Y-37637D03*
X80984Y-37244D03*
X80590Y-37244D03*
X84921Y-35826D03*
X84921Y-38582D03*
X85944Y-37755D03*
X85944Y-36732D03*
X85944Y-35000D03*
X85944Y-33976D03*
X66850Y-42677D03*
X38779Y-38385D03*
X38779Y-37795D03*
X69291Y-46181D03*
X68582Y-45944D03*
X69685Y-46102D03*
X81496Y-35944D03*
X80236Y-39960D03*
X79803Y-40196D03*
X82047Y-45669D03*
X79370Y-33858D03*
X79685Y-37362D03*
X80433Y-33917D03*
X70905Y-34448D03*
X67322Y-34448D03*
X59448Y-38425D03*
X51338Y-38818D03*
X48740Y-36929D03*
X51692Y-39330D03*
X48385Y-39251D03*
X33228Y-34409D03*
X33267Y-33937D03*
X32716Y-33897D03*
X36811Y-34212D03*
X36889Y-33543D03*
X35511Y-45314D03*
X33661Y-45157D03*
X32874Y-45354D03*
X34960Y-43346D03*
X32125Y-40511D03*
X33228Y-41377D03*
X66811Y-40511D03*
X66771Y-38228D03*
X78740Y-40472D03*
X80236Y-38937D03*
X76181Y-39133D03*
X77007Y-42362D03*
X82755Y-45669D03*
X70866Y-45984D03*
X73228Y-45905D03*
X73858Y-45866D03*
X74566Y-45984D03*
X43897Y-38188D03*
X44488Y-38188D03*
X42125Y-37598D03*
X43110Y-37598D03*
X43897Y-37598D03*
X45078Y-38976D03*
X45275Y-39370D03*
X44488Y-39370D03*
X44488Y-38779D03*
X43897Y-38779D03*
X40748Y-37007D03*
X38779Y-37007D03*
X39370Y-37007D03*
X39960Y-37007D03*
X40748Y-38385D03*
X39960Y-37795D03*
X40748Y-37795D03*
X41338Y-37795D03*
X41338Y-38385D03*
X39960Y-38385D03*
X40748Y-38976D03*
X41338Y-38976D03*
X41338Y-39370D03*
X50000Y-43897D03*
X50984Y-43897D03*
X52755Y-43700D03*
X53149Y-42913D03*
X51968Y-42913D03*
X54330Y-42125D03*
X53149Y-42125D03*
X51968Y-42125D03*
X48779Y-44035D03*
X48326Y-43425D03*
X46751Y-43681D03*
X45905Y-43681D03*
X47677Y-42145D03*
X47578Y-42834D03*
X45492Y-42834D03*
X44311Y-42440D03*
X44901Y-42283D03*
X44960Y-41830D03*
X39094Y-44192D03*
X41122Y-44192D03*
X42893Y-44153D03*
X44311Y-44153D03*
X41082Y-43602D03*
X39606Y-43602D03*
X40787Y-41968D03*
X37066Y-42185D03*
X38228Y-42283D03*
X38897Y-42972D03*
X40629Y-42952D03*
X43307Y-40314D03*
X42913Y-40314D03*
X42519Y-40314D03*
X43307Y-40787D03*
X42913Y-40787D03*
X42519Y-40787D03*
X73937Y-39094D03*
X72598Y-41771D03*
X70393Y-40196D03*
X71968Y-42401D03*
X71653Y-42401D03*
X70708Y-41771D03*
X70393Y-41771D03*
X71023Y-40196D03*
X72244Y-40157D03*
X73543Y-42716D03*
X70393Y-43031D03*
X72913Y-42401D03*
X72598Y-42401D03*
X73543Y-40826D03*
X71496Y-39960D03*
X73543Y-40511D03*
X73228Y-42716D03*
X72598Y-42716D03*
X73070Y-38818D03*
X72913Y-39251D03*
X70708Y-39251D03*
X70708Y-42716D03*
X77952Y-44173D03*
X77952Y-38897D03*
X82125Y-36220D03*
X70551Y-43503D03*
X78267Y-44173D03*
X78267Y-40433D03*
X82362Y-36574D03*
X79448Y-35708D03*
X70866Y-38858D03*
X72755Y-38818D03*
X80905Y-35944D03*
X72598Y-39251D03*
X80629Y-35905D03*
X80905Y-35708D03*
X72125Y-38858D03*
X70078Y-40511D03*
X57677Y-40511D03*
X69763Y-40511D03*
X76338Y-35787D03*
X78700Y-35787D03*
X84566Y-33543D03*
X81417Y-38543D03*
X84251Y-36299D03*
X82322Y-36929D03*
X81417Y-35236D03*
X73228Y-42086D03*
X68503Y-40669D03*
X76968Y-41929D03*
X72913Y-41771D03*
X73228Y-42401D03*
X86338Y-42322D03*
X69763Y-42716D03*
X69763Y-42086D03*
X70629Y-47834D03*
X71023Y-42401D03*
X73858Y-41456D03*
X77165Y-40393D03*
X84370Y-42322D03*
X62677Y-37913D03*
X70078Y-42401D03*
X76614Y-48110D03*
X86692Y-43228D03*
X79803Y-35433D03*
G54D22*
X40698Y-35088D03*
X43169Y-35059D03*
G54D26*
X68228Y-39803D03*
X73228Y-41456D03*
X68188Y-38464D03*
X72834Y-41299D03*
X75236Y-41102D03*
X73228Y-41141D03*
X74685Y-40236D03*
X72913Y-42086D03*
X73543Y-41456D03*
X75196Y-40236D03*
X73543Y-40196D03*
X72283Y-42716D03*
X73228Y-43031D03*
X73543Y-43031D03*
X75196Y-42559D03*
X72598Y-43031D03*
X75196Y-42874D03*
G54D22*
X42677Y-33543D03*
X57086Y-35039D03*
X54596Y-35039D03*
G54D26*
X72480Y-37322D03*
X71653Y-39566D03*
X73543Y-39566D03*
X72598Y-39566D03*
X70708Y-39566D03*
G54D22*
X56574Y-33543D03*
G54D26*
X71811Y-38228D03*
X71811Y-39960D03*
X55590Y-34881D03*
X72283Y-38464D03*
X72283Y-39881D03*
X58543Y-34881D03*
X68464Y-37559D03*
X53661Y-34881D03*
X52952Y-34881D03*
X73543Y-38582D03*
X73543Y-39251D03*
X60433Y-34881D03*
X71496Y-38858D03*
X71496Y-37874D03*
X59488Y-34881D03*
X56574Y-40590D03*
X70078Y-39251D03*
G54D22*
X50669Y-37519D03*
G54D26*
X52992Y-41614D03*
X44803Y-38188D03*
X73543Y-39881D03*
X41692Y-34881D03*
X45551Y-37362D03*
X52992Y-40984D03*
X72598Y-40196D03*
X44645Y-34881D03*
X73228Y-39881D03*
X39763Y-34881D03*
X41338Y-37165D03*
X51811Y-40590D03*
X72440Y-38818D03*
X39055Y-34881D03*
X72913Y-40196D03*
X46614Y-34881D03*
X72913Y-39881D03*
X45629Y-34881D03*
X49291Y-39842D03*
X69330Y-38661D03*
G54D22*
X49409Y-38228D03*
G54D26*
X61574Y-38464D03*
X66338Y-40039D03*
X70078Y-39881D03*
X69763Y-39566D03*
X69763Y-39251D03*
X70708Y-39881D03*
X70393Y-39251D03*
X66377Y-37362D03*
X62637Y-38937D03*
X73385Y-38818D03*
X72598Y-39881D03*
X75039Y-40629D03*
X75039Y-42086D03*
X73543Y-42086D03*
X73858Y-40511D03*
X31299Y-43346D03*
X73858Y-40826D03*
X31299Y-43582D03*
X82874Y-35196D03*
X79606Y-37913D03*
X34291Y-45000D03*
X73858Y-39881D03*
G54D28*
X72047Y-36968D02*
X72047Y-38622D01*
X72519Y-36496D02*
X72047Y-36968D01*
X76771Y-36712D02*
X76771Y-42795D01*
X70787Y-44370D02*
X75196Y-44370D01*
X75196Y-44370D02*
X76771Y-42795D01*
X71456Y-32874D02*
X71456Y-32952D01*
X73070Y-34566D02*
X73070Y-34842D01*
X71456Y-32952D02*
X73070Y-34566D01*
X73070Y-38818D02*
X73070Y-34842D01*
X72913Y-38228D02*
X72913Y-39251D01*
X70787Y-32874D02*
X72913Y-35000D01*
X72913Y-35000D02*
X72913Y-38228D01*
X70669Y-32874D02*
X70787Y-32874D01*
X69881Y-33858D02*
X69881Y-32874D01*
X70708Y-34685D02*
X69881Y-33858D01*
X70708Y-39251D02*
X70708Y-34685D01*
X77952Y-38897D02*
X78937Y-37913D01*
X82125Y-36220D02*
X78937Y-36220D01*
X73021Y-48582D02*
X72992Y-48582D01*
X70866Y-42874D02*
X70708Y-42716D01*
X70866Y-43543D02*
X70866Y-42874D01*
X70354Y-44055D02*
X70866Y-43543D01*
X70354Y-47834D02*
X70354Y-44055D01*
X70551Y-48031D02*
X70354Y-47834D01*
X72440Y-48031D02*
X70551Y-48031D01*
X72992Y-48582D02*
X72440Y-48031D01*
X77952Y-38897D02*
X77952Y-44173D01*
X77952Y-44173D02*
X77952Y-46062D01*
X73021Y-48356D02*
X73021Y-48582D01*
X73622Y-47755D02*
X73021Y-48356D01*
X76259Y-47755D02*
X73622Y-47755D01*
X77952Y-46062D02*
X76259Y-47755D01*
X78937Y-32874D02*
X78937Y-36220D01*
X78937Y-36220D02*
X78937Y-37913D01*
X82362Y-36574D02*
X81929Y-37007D01*
X81456Y-38228D02*
X80669Y-38228D01*
X81929Y-37755D02*
X81456Y-38228D01*
X81929Y-37007D02*
X81929Y-37755D01*
X72167Y-48228D02*
X72521Y-48582D01*
X70551Y-43503D02*
X70196Y-43858D01*
X70196Y-43858D02*
X70196Y-47913D01*
X70196Y-47913D02*
X70511Y-48228D01*
X70511Y-48228D02*
X72167Y-48228D01*
X78267Y-40433D02*
X78267Y-44173D01*
X78267Y-44173D02*
X78267Y-47874D01*
X72521Y-48860D02*
X72521Y-48582D01*
X72913Y-49251D02*
X72521Y-48860D01*
X76889Y-49251D02*
X72913Y-49251D01*
X78267Y-47874D02*
X76889Y-49251D01*
X78464Y-40433D02*
X80669Y-38228D01*
X78267Y-40433D02*
X78346Y-40433D01*
X78346Y-40433D02*
X78425Y-40433D01*
X78425Y-40433D02*
X78464Y-40433D01*
X82322Y-36574D02*
X82362Y-36574D01*
X82362Y-36574D02*
X82362Y-35511D01*
X82362Y-35511D02*
X79724Y-32874D01*
X82362Y-36574D02*
X82322Y-36574D01*
X70078Y-40511D02*
X69921Y-40354D01*
X57677Y-40511D02*
X57834Y-40354D01*
X57834Y-40354D02*
X69921Y-40354D01*
X84251Y-36299D02*
X84251Y-33858D01*
X84251Y-33858D02*
X84566Y-33543D01*
X82007Y-38543D02*
X81417Y-38543D01*
X84251Y-36299D02*
X82007Y-38543D01*
X70590Y-47795D02*
X70590Y-47755D01*
X70629Y-47834D02*
X70590Y-47795D01*
X70590Y-47559D02*
X70590Y-47755D01*
X71023Y-42401D02*
X71023Y-43700D01*
X70590Y-44133D02*
X70590Y-47559D01*
X71023Y-43700D02*
X70590Y-44133D01*
X72913Y-42086D02*
X73543Y-41456D01*
X71811Y-38267D02*
X71811Y-38228D01*
X71811Y-39960D02*
X71811Y-38267D01*
X72283Y-39881D02*
X72283Y-38464D01*
X53661Y-34881D02*
X53661Y-35196D01*
X54094Y-35629D02*
X67755Y-35629D01*
X53661Y-35196D02*
X54094Y-35629D01*
X68464Y-36338D02*
X67755Y-35629D01*
X68464Y-37559D02*
X68464Y-36338D01*
X71496Y-37874D02*
X71496Y-38858D01*
X56968Y-40196D02*
X56574Y-40590D01*
X70118Y-40196D02*
X56968Y-40196D01*
X70314Y-40000D02*
X70118Y-40196D01*
X70314Y-39488D02*
X70314Y-40000D01*
X70078Y-39251D02*
X70314Y-39488D01*
X72125Y-41614D02*
X73385Y-40354D01*
X73385Y-40039D02*
X73385Y-40354D01*
X73543Y-39881D02*
X73385Y-40039D01*
X72125Y-41614D02*
X52992Y-41614D01*
X44803Y-38188D02*
X41692Y-35078D01*
X41692Y-34881D02*
X41692Y-35078D01*
X71811Y-40984D02*
X72047Y-40748D01*
X71732Y-40984D02*
X71811Y-40984D01*
X71692Y-40984D02*
X71732Y-40984D01*
X52992Y-40984D02*
X71692Y-40984D01*
X44645Y-36456D02*
X44645Y-34881D01*
X45551Y-37362D02*
X44645Y-36456D01*
X72598Y-40196D02*
X72047Y-40748D01*
X46338Y-41456D02*
X39763Y-34881D01*
X72086Y-41456D02*
X46338Y-41456D01*
X73228Y-40314D02*
X72086Y-41456D01*
X73228Y-39881D02*
X73228Y-40314D01*
X72440Y-40118D02*
X72440Y-40196D01*
X71811Y-40826D02*
X71732Y-40826D01*
X72440Y-40196D02*
X71811Y-40826D01*
X51811Y-40590D02*
X52047Y-40826D01*
X39370Y-35196D02*
X41338Y-37165D01*
X39055Y-34881D02*
X39370Y-35196D01*
X52047Y-40826D02*
X71732Y-40826D01*
X72440Y-39803D02*
X72440Y-40118D01*
X72440Y-38818D02*
X72440Y-39803D01*
X71968Y-41141D02*
X72913Y-40196D01*
X46614Y-34881D02*
X46614Y-37716D01*
X50039Y-41141D02*
X71968Y-41141D01*
X46614Y-37716D02*
X50039Y-41141D01*
X72047Y-41299D02*
X73070Y-40275D01*
X45629Y-34881D02*
X45629Y-37086D01*
X45629Y-37086D02*
X49842Y-41299D01*
X49842Y-41299D02*
X72047Y-41299D01*
X73070Y-40039D02*
X72913Y-39881D01*
X73070Y-40275D02*
X73070Y-40039D01*
X49291Y-39842D02*
X53070Y-39842D01*
X53070Y-39842D02*
X66181Y-39842D01*
X66181Y-39842D02*
X66968Y-39842D01*
X66968Y-39842D02*
X68149Y-38661D01*
X68149Y-38661D02*
X69330Y-38661D01*
X69921Y-40039D02*
X66338Y-40039D01*
X70078Y-39881D02*
X69921Y-40039D01*
X61811Y-32874D02*
X61889Y-32874D01*
X69606Y-39409D02*
X69763Y-39566D01*
X69606Y-35511D02*
X69606Y-39409D01*
X68188Y-34094D02*
X69606Y-35511D01*
X63110Y-34094D02*
X68188Y-34094D01*
X61889Y-32874D02*
X63110Y-34094D01*
X63543Y-33818D02*
X62598Y-32874D01*
X68385Y-33818D02*
X63543Y-33818D01*
X69763Y-35196D02*
X68385Y-33818D01*
X69763Y-39251D02*
X69763Y-35196D01*
X63385Y-32874D02*
X63385Y-32952D01*
X70551Y-39724D02*
X70708Y-39881D01*
X70551Y-35275D02*
X70551Y-39724D01*
X68818Y-33543D02*
X70551Y-35275D01*
X63976Y-33543D02*
X68818Y-33543D01*
X63385Y-32952D02*
X63976Y-33543D01*
X73385Y-38818D02*
X73858Y-38818D01*
X73858Y-38818D02*
X75590Y-37086D01*
X75590Y-37086D02*
X75590Y-32874D01*
X73228Y-38503D02*
X74803Y-36929D01*
X72598Y-39881D02*
X73228Y-39251D01*
X73228Y-39251D02*
X73228Y-38503D01*
X74803Y-36929D02*
X74803Y-32874D01*
X73700Y-40669D02*
X73700Y-40905D01*
X73622Y-40984D02*
X72913Y-40984D01*
X73700Y-40905D02*
X73622Y-40984D01*
X31299Y-43346D02*
X31496Y-43346D01*
X31496Y-43346D02*
X32834Y-44685D01*
X38307Y-44685D02*
X32834Y-44685D01*
X71811Y-41929D02*
X71062Y-41929D01*
X73858Y-40511D02*
X73700Y-40669D01*
X72913Y-40984D02*
X71968Y-41929D01*
X71968Y-41929D02*
X71811Y-41929D01*
X71062Y-41929D02*
X70866Y-41929D01*
X68110Y-44685D02*
X38307Y-44685D01*
X70866Y-41929D02*
X68110Y-44685D01*
X73385Y-41299D02*
X73661Y-41299D01*
X73858Y-41102D02*
X73858Y-40826D01*
X73661Y-41299D02*
X73858Y-41102D01*
X38149Y-44842D02*
X32559Y-44842D01*
X32559Y-44842D02*
X31299Y-43582D01*
X68149Y-44842D02*
X38149Y-44842D01*
X70944Y-42047D02*
X68149Y-44842D01*
X72007Y-42047D02*
X70944Y-42047D01*
X72598Y-41456D02*
X72007Y-42047D01*
X72913Y-41456D02*
X72598Y-41456D01*
X73070Y-41299D02*
X72913Y-41456D01*
X73385Y-41299D02*
X73070Y-41299D01*
X68149Y-45000D02*
X34291Y-45000D01*
X70905Y-42244D02*
X68149Y-45000D01*
X73740Y-42244D02*
X70905Y-42244D01*
X74133Y-41850D02*
X73740Y-42244D01*
X74133Y-40157D02*
X74133Y-41850D01*
X73858Y-39881D02*
X74133Y-40157D01*
M02*
