G04 (created by PCBNEW (2013-mar-13)-testing) date Wed 28 May 2014 11:57:13 AM CEST*
%MOIN*%
G04 Gerber Fmt 3.4, Leading zero omitted, Abs format*
%FSLAX34Y34*%
G01*
G70*
G90*
G04 APERTURE LIST*
%ADD10C,0.005906*%
%ADD11C,0.002362*%
%ADD12R,0.057087X0.045276*%
%ADD13R,0.039370X0.021654*%
%ADD14R,0.037402X0.039370*%
%ADD15R,0.039370X0.037402*%
%ADD16O,0.086614X0.051181*%
%ADD17R,0.037402X0.071850*%
%ADD18R,0.025591X0.051181*%
%ADD19R,0.057480X0.078740*%
%ADD20R,0.098425X0.056102*%
%ADD21R,0.068898X0.015748*%
%ADD22R,0.078740X0.049213*%
%ADD23R,0.045276X0.057087*%
%ADD24R,0.039370X0.059055*%
%ADD25R,0.047244X0.086614*%
%ADD26R,0.086614X0.031496*%
%ADD27R,0.149606X0.090551*%
%ADD28R,0.082677X0.055118*%
%ADD29R,0.055118X0.082677*%
%ADD30R,0.098425X0.047244*%
%ADD31R,0.017717X0.033465*%
%ADD32R,0.098425X0.062992*%
%ADD33R,0.061024X0.023622*%
G04 APERTURE END LIST*
G54D10*
G54D11*
X87992Y-50590D02*
X87992Y-32086D01*
X28937Y-50590D02*
X87992Y-50590D01*
X28937Y-32086D02*
X28937Y-50590D01*
X87992Y-32086D02*
X28937Y-32086D01*
G54D12*
X35511Y-44212D03*
X35511Y-44921D03*
G54D13*
X33681Y-44114D03*
X33681Y-44862D03*
X34744Y-44114D03*
X33681Y-44488D03*
X34744Y-44862D03*
G54D12*
X32874Y-44212D03*
X32874Y-44921D03*
G54D14*
X33937Y-43346D03*
X34566Y-43346D03*
G54D15*
X33228Y-42440D03*
X33228Y-41811D03*
G54D16*
X29606Y-44694D03*
X29606Y-42549D03*
G54D17*
X30226Y-44798D03*
X30226Y-42445D03*
G54D18*
X29911Y-44694D03*
X29911Y-42549D03*
G54D19*
X30799Y-44763D03*
X30799Y-42480D03*
G54D20*
X29507Y-44000D03*
X29507Y-43243D03*
G54D21*
X30718Y-44133D03*
X30718Y-43877D03*
X30718Y-43622D03*
X30718Y-43366D03*
X30718Y-43110D03*
G54D22*
X32125Y-40994D03*
X32125Y-42470D03*
G54D15*
X32716Y-35000D03*
X32716Y-34370D03*
G54D12*
X36811Y-35433D03*
X36811Y-34724D03*
G54D23*
X38110Y-33543D03*
X37401Y-33543D03*
G54D24*
X46604Y-34330D03*
X45620Y-34330D03*
X44635Y-34330D03*
X43986Y-34330D03*
X43336Y-34330D03*
X42667Y-34330D03*
X41683Y-34330D03*
X40698Y-34330D03*
X39744Y-34330D03*
X39074Y-34330D03*
X37755Y-34330D03*
G54D25*
X48582Y-42598D03*
X37559Y-43070D03*
G54D26*
X50669Y-36929D03*
X49409Y-36929D03*
X49409Y-38818D03*
X50669Y-38818D03*
G54D24*
X60501Y-34330D03*
X59517Y-34330D03*
X58533Y-34330D03*
X57883Y-34330D03*
X57234Y-34330D03*
X56564Y-34330D03*
X55580Y-34330D03*
X54596Y-34330D03*
X53641Y-34330D03*
X52972Y-34330D03*
X51653Y-34330D03*
G54D25*
X62480Y-42598D03*
X51456Y-43070D03*
G54D23*
X51692Y-33543D03*
X50984Y-33543D03*
G54D27*
X64724Y-35964D03*
X64724Y-40570D03*
G54D28*
X67303Y-34940D03*
X70885Y-34940D03*
X67303Y-36712D03*
X70885Y-36712D03*
X73799Y-34940D03*
X77381Y-34940D03*
X73799Y-36712D03*
X77381Y-36712D03*
G54D12*
X80196Y-35039D03*
X80196Y-34330D03*
G54D15*
X79488Y-35078D03*
X79488Y-34448D03*
G54D14*
X84921Y-34803D03*
X85551Y-34803D03*
X84921Y-34173D03*
X85551Y-34173D03*
X84921Y-36929D03*
X85551Y-36929D03*
X84921Y-37559D03*
X85551Y-37559D03*
X78149Y-38110D03*
X78779Y-38110D03*
G54D12*
X72047Y-37322D03*
X72047Y-36614D03*
G54D29*
X84940Y-47460D03*
X84940Y-43877D03*
X86712Y-47460D03*
X86712Y-43877D03*
G54D14*
X83740Y-42716D03*
X84370Y-42716D03*
X85708Y-42716D03*
X86338Y-42716D03*
G54D30*
X83484Y-46653D03*
X83484Y-44685D03*
X81318Y-44685D03*
X81318Y-46653D03*
X81318Y-45669D03*
X83484Y-45669D03*
G54D31*
X78267Y-40059D03*
X78661Y-40059D03*
X79055Y-40059D03*
X79055Y-38917D03*
X78661Y-38917D03*
X78267Y-38917D03*
G54D32*
X78661Y-39488D03*
G54D15*
X79803Y-39133D03*
X79803Y-39763D03*
G54D23*
X67952Y-37834D03*
X67244Y-37834D03*
X67952Y-39133D03*
X67244Y-39133D03*
X67952Y-40433D03*
X67244Y-40433D03*
G54D14*
X67913Y-41417D03*
X67283Y-41417D03*
X67283Y-42047D03*
X67913Y-42047D03*
X67913Y-42677D03*
X67283Y-42677D03*
X67283Y-43307D03*
X67913Y-43307D03*
G54D15*
X68582Y-44803D03*
X68582Y-45433D03*
G54D12*
X69291Y-44842D03*
X69291Y-45551D03*
G54D15*
X70157Y-44803D03*
X70157Y-45433D03*
G54D12*
X70866Y-44842D03*
X70866Y-45551D03*
G54D15*
X71653Y-44803D03*
X71653Y-45433D03*
X72322Y-44803D03*
X72322Y-45433D03*
X73031Y-44803D03*
X73031Y-45433D03*
X73661Y-45433D03*
X73661Y-44803D03*
X74291Y-45433D03*
X74291Y-44803D03*
G54D12*
X71299Y-47480D03*
X71299Y-46771D03*
G54D14*
X76181Y-40236D03*
X75551Y-40236D03*
X76181Y-41377D03*
X75551Y-41377D03*
X76181Y-42362D03*
X75551Y-42362D03*
G54D23*
X76299Y-43070D03*
X75590Y-43070D03*
G54D15*
X77716Y-43700D03*
X77716Y-43070D03*
X78503Y-43700D03*
X78503Y-43070D03*
G54D23*
X70393Y-49448D03*
X71102Y-49448D03*
G54D33*
X33779Y-33935D03*
X33779Y-34435D03*
X33779Y-34935D03*
X33779Y-35435D03*
X35905Y-35435D03*
X35905Y-34935D03*
X35905Y-34435D03*
X35905Y-33935D03*
M02*
