G04 (created by PCBNEW (2013-mar-13)-testing) date Tue 17 Jun 2014 03:31:25 PM CEST*
%MOIN*%
G04 Gerber Fmt 3.4, Leading zero omitted, Abs format*
%FSLAX34Y34*%
G01*
G70*
G90*
G04 APERTURE LIST*
%ADD10C,0.005906*%
%ADD11C,0.002362*%
%ADD12R,0.031496X0.086614*%
%ADD13R,0.039370X0.037402*%
%ADD14R,0.057087X0.045276*%
%ADD15R,0.045276X0.057087*%
%ADD16R,0.037402X0.039370*%
%ADD17R,0.070866X0.031496*%
%ADD18R,0.106299X0.045276*%
%ADD19R,0.045276X0.070866*%
%ADD20R,0.011811X0.062992*%
%ADD21R,0.133858X0.094488*%
%ADD22R,0.023622X0.061024*%
%ADD23R,0.066929X0.078740*%
%ADD24C,0.019685*%
%ADD25R,0.025591X0.033465*%
%ADD26R,0.033465X0.009843*%
%ADD27R,0.009843X0.033465*%
%ADD28R,0.135827X0.135827*%
%ADD29O,0.086614X0.051181*%
%ADD30R,0.057480X0.041339*%
G04 APERTURE END LIST*
G54D10*
G54D11*
X87992Y-50590D02*
X87992Y-32086D01*
X28937Y-50590D02*
X87992Y-50590D01*
X28937Y-32086D02*
X28937Y-50590D01*
X87992Y-32086D02*
X28937Y-32086D01*
G54D12*
X39409Y-39173D03*
X39409Y-37913D03*
G54D13*
X39055Y-33543D03*
X39055Y-34173D03*
X39763Y-33543D03*
X39763Y-34173D03*
G54D14*
X40748Y-33543D03*
X40748Y-34251D03*
G54D13*
X41692Y-33543D03*
X41692Y-34173D03*
X43818Y-33543D03*
X43818Y-34173D03*
X44645Y-33543D03*
X44645Y-34173D03*
X45629Y-33543D03*
X45629Y-34173D03*
X46614Y-33543D03*
X46614Y-34173D03*
G54D15*
X48228Y-33543D03*
X47519Y-33543D03*
X50984Y-33543D03*
X51692Y-33543D03*
G54D13*
X52952Y-33543D03*
X52952Y-34173D03*
X53661Y-33543D03*
X53661Y-34173D03*
G54D14*
X54645Y-33543D03*
X54645Y-34251D03*
G54D13*
X55590Y-33543D03*
X55590Y-34173D03*
X57598Y-33543D03*
X57598Y-34173D03*
X58425Y-33543D03*
X58425Y-34173D03*
X59251Y-33543D03*
X59251Y-34173D03*
X60078Y-33543D03*
X60078Y-34173D03*
X59448Y-37401D03*
X59448Y-38031D03*
X60078Y-37401D03*
X60078Y-38031D03*
X60708Y-36771D03*
X60708Y-37401D03*
X61338Y-36771D03*
X61338Y-37401D03*
G54D16*
X62913Y-36771D03*
X63543Y-36771D03*
G54D17*
X62125Y-37938D03*
X62125Y-37438D03*
X62125Y-38438D03*
X62125Y-38938D03*
X64330Y-37438D03*
X64330Y-37938D03*
X64330Y-38438D03*
X64330Y-38938D03*
G54D13*
X37755Y-41023D03*
X37755Y-41653D03*
G54D18*
X39370Y-40944D03*
X39370Y-42125D03*
X46456Y-40944D03*
X46456Y-42125D03*
G54D19*
X43110Y-38385D03*
X41929Y-38385D03*
G54D16*
X49409Y-39330D03*
X48779Y-39330D03*
G54D19*
X43110Y-42716D03*
X41929Y-42716D03*
G54D20*
X43041Y-41653D03*
X43297Y-41653D03*
X43553Y-41653D03*
X43809Y-41653D03*
X44064Y-41653D03*
X42785Y-41653D03*
X42529Y-41653D03*
X42273Y-41653D03*
X42017Y-41653D03*
X41761Y-41653D03*
X41761Y-39448D03*
X42017Y-39448D03*
X42273Y-39448D03*
X42529Y-39448D03*
X42785Y-39448D03*
X43041Y-39448D03*
X43297Y-39448D03*
X43553Y-39448D03*
X43809Y-39448D03*
X44064Y-39448D03*
G54D21*
X42913Y-40551D03*
G54D16*
X50669Y-39330D03*
X51299Y-39330D03*
G54D13*
X51417Y-41692D03*
X51417Y-41062D03*
G54D22*
X50789Y-42440D03*
X50789Y-40314D03*
X50289Y-40314D03*
X50289Y-42440D03*
X49789Y-42440D03*
X49789Y-40314D03*
X49289Y-40314D03*
X49289Y-42440D03*
G54D16*
X49724Y-43228D03*
X49094Y-43228D03*
X50354Y-43228D03*
X50984Y-43228D03*
G54D15*
X71102Y-49448D03*
X70393Y-49448D03*
G54D16*
X76220Y-47480D03*
X75590Y-47480D03*
X75590Y-48110D03*
X76220Y-48110D03*
X71259Y-47480D03*
X71889Y-47480D03*
X70629Y-47480D03*
X70000Y-47480D03*
G54D23*
X71594Y-46692D03*
X70295Y-46692D03*
G54D13*
X69685Y-44803D03*
X69685Y-45433D03*
X70590Y-44803D03*
X70590Y-45433D03*
X73228Y-45433D03*
X73228Y-44803D03*
X72165Y-45433D03*
X72165Y-44803D03*
X73858Y-44803D03*
X73858Y-45433D03*
G54D14*
X74566Y-44842D03*
X74566Y-45551D03*
G54D16*
X84370Y-42716D03*
X83740Y-42716D03*
X86338Y-42716D03*
X85708Y-42716D03*
G54D24*
X71496Y-39094D03*
X71181Y-39094D03*
X71811Y-39094D03*
X72125Y-39094D03*
X72440Y-39094D03*
X72755Y-39094D03*
X73070Y-39094D03*
X73385Y-39094D03*
X73700Y-39094D03*
X69606Y-39094D03*
X69921Y-39094D03*
X70236Y-39094D03*
X70551Y-39094D03*
X70866Y-39094D03*
X69606Y-39409D03*
X69921Y-39409D03*
X70236Y-39409D03*
X70551Y-39409D03*
X70866Y-39409D03*
X71181Y-39409D03*
X71496Y-39409D03*
X71811Y-39409D03*
X72125Y-39409D03*
X72440Y-39409D03*
X72755Y-39409D03*
X73070Y-39409D03*
X73385Y-39409D03*
X73700Y-39409D03*
X69606Y-39724D03*
X69921Y-39724D03*
X70236Y-39724D03*
X70551Y-39724D03*
X70866Y-39724D03*
X71181Y-39724D03*
X71496Y-39724D03*
X71811Y-39724D03*
X72125Y-39724D03*
X72440Y-39724D03*
X72755Y-39724D03*
X73070Y-39724D03*
X73385Y-39724D03*
X73700Y-39724D03*
X69606Y-40039D03*
X69921Y-40039D03*
X70236Y-40039D03*
X70551Y-40039D03*
X70866Y-40039D03*
X72440Y-40039D03*
X72755Y-40039D03*
X73070Y-40039D03*
X73385Y-40039D03*
X73700Y-40039D03*
X69606Y-40354D03*
X69921Y-40354D03*
X70236Y-40354D03*
X70551Y-40354D03*
X72755Y-40354D03*
X73070Y-40354D03*
X73385Y-40354D03*
X73700Y-40354D03*
X69606Y-40669D03*
X69921Y-40669D03*
X70236Y-40669D03*
X73070Y-40669D03*
X73385Y-40669D03*
X73700Y-40669D03*
X69606Y-40984D03*
X69921Y-40984D03*
X70236Y-40984D03*
X73070Y-40984D03*
X73385Y-40984D03*
X73700Y-40984D03*
X69606Y-41299D03*
X69921Y-41299D03*
X70236Y-41299D03*
X73070Y-41299D03*
X73385Y-41299D03*
X73700Y-41299D03*
X69606Y-41614D03*
X69921Y-41614D03*
X70236Y-41614D03*
X73070Y-41614D03*
X73385Y-41614D03*
X73700Y-41614D03*
X69606Y-41929D03*
X69921Y-41929D03*
X70236Y-41929D03*
X70551Y-41929D03*
X72755Y-41929D03*
X73070Y-41929D03*
X73385Y-41929D03*
X73700Y-41929D03*
X69606Y-42244D03*
X69921Y-42244D03*
X70236Y-42244D03*
X70551Y-42244D03*
X70866Y-42244D03*
X72440Y-42244D03*
X72755Y-42244D03*
X73070Y-42244D03*
X73385Y-42244D03*
X73700Y-42244D03*
X69606Y-42559D03*
X69921Y-42559D03*
X70236Y-42559D03*
X70551Y-42559D03*
X70866Y-42559D03*
X71181Y-42559D03*
X71496Y-42559D03*
X71811Y-42559D03*
X72125Y-42559D03*
X72440Y-42559D03*
X72755Y-42559D03*
X73070Y-42559D03*
X73385Y-42559D03*
X73700Y-42559D03*
X69606Y-42874D03*
X69921Y-42874D03*
X70236Y-42874D03*
X70551Y-42874D03*
X70866Y-42874D03*
X71181Y-42874D03*
X71496Y-42874D03*
X71811Y-42874D03*
X72125Y-42874D03*
X72440Y-42874D03*
X72755Y-42874D03*
X73070Y-42874D03*
X73385Y-42874D03*
X73700Y-42874D03*
X69606Y-43188D03*
X69921Y-43188D03*
X70236Y-43188D03*
X70551Y-43188D03*
X70866Y-43188D03*
X71181Y-43188D03*
X71496Y-43188D03*
X71811Y-43188D03*
X72125Y-43188D03*
X72440Y-43188D03*
X72755Y-43188D03*
X73070Y-43188D03*
X73385Y-43188D03*
X73700Y-43188D03*
G54D13*
X71338Y-37362D03*
X71338Y-36732D03*
G54D14*
X72047Y-37322D03*
X72047Y-36614D03*
G54D13*
X73897Y-35157D03*
X73897Y-35787D03*
X73897Y-36417D03*
X73897Y-37047D03*
G54D16*
X74685Y-37047D03*
X75314Y-37047D03*
G54D13*
X75944Y-35787D03*
X75944Y-36417D03*
G54D25*
X74675Y-35797D03*
X75324Y-35797D03*
X75324Y-36407D03*
X74675Y-36407D03*
G54D16*
X78779Y-37244D03*
X78149Y-37244D03*
X78779Y-36614D03*
X78149Y-36614D03*
G54D26*
X80009Y-36751D03*
X80009Y-36948D03*
X80009Y-37145D03*
X80009Y-36555D03*
G54D27*
X80295Y-36269D03*
X80492Y-36269D03*
X80688Y-36269D03*
X80885Y-36269D03*
X81082Y-36269D03*
X81279Y-36269D03*
X81476Y-36269D03*
X81673Y-36269D03*
G54D26*
X81958Y-37933D03*
X81958Y-36555D03*
X81958Y-36751D03*
X81958Y-36948D03*
X81958Y-37145D03*
X81958Y-37342D03*
X81958Y-37539D03*
X81958Y-37736D03*
G54D27*
X81673Y-38218D03*
X81476Y-38218D03*
X81279Y-38218D03*
X81082Y-38218D03*
X80885Y-38218D03*
X80688Y-38218D03*
X80492Y-38218D03*
X80295Y-38218D03*
G54D26*
X80009Y-37933D03*
X80009Y-37736D03*
X80009Y-37539D03*
X80009Y-37342D03*
G54D28*
X80984Y-37244D03*
G54D13*
X79803Y-34291D03*
X79803Y-34921D03*
X80669Y-34291D03*
X80669Y-34921D03*
G54D15*
X81417Y-34566D03*
X82125Y-34566D03*
G54D14*
X82913Y-34527D03*
X82913Y-33818D03*
G54D13*
X83622Y-34409D03*
X83622Y-33779D03*
G54D15*
X80236Y-39448D03*
X80944Y-39448D03*
G54D14*
X83503Y-38228D03*
X83503Y-38937D03*
G54D13*
X84212Y-38267D03*
X84212Y-38897D03*
G54D16*
X84921Y-38188D03*
X85551Y-38188D03*
X85551Y-37559D03*
X84921Y-37559D03*
X85551Y-36929D03*
X84921Y-36929D03*
X85551Y-36299D03*
X84921Y-36299D03*
X84921Y-35433D03*
X85551Y-35433D03*
X85551Y-34803D03*
X84921Y-34803D03*
X85551Y-34173D03*
X84921Y-34173D03*
X85551Y-33543D03*
X84921Y-33543D03*
G54D13*
X77165Y-40748D03*
X77165Y-41377D03*
G54D16*
X75551Y-39527D03*
X76181Y-39527D03*
G54D15*
X75590Y-40236D03*
X76299Y-40236D03*
G54D16*
X75551Y-40944D03*
X76181Y-40944D03*
G54D15*
X75590Y-41653D03*
X76299Y-41653D03*
G54D16*
X75551Y-42362D03*
X76181Y-42362D03*
X75551Y-42992D03*
X76181Y-42992D03*
X67283Y-43110D03*
X67913Y-43110D03*
X67913Y-42480D03*
X67283Y-42480D03*
X67913Y-41850D03*
X67283Y-41850D03*
X67913Y-40748D03*
X67283Y-40748D03*
X67283Y-40118D03*
X67913Y-40118D03*
X67913Y-39448D03*
X67283Y-39448D03*
X67283Y-38818D03*
X67913Y-38818D03*
X67913Y-38149D03*
X67283Y-38149D03*
X67283Y-37519D03*
X67913Y-37519D03*
G54D29*
X29606Y-42549D03*
X29606Y-44694D03*
G54D30*
X30799Y-44576D03*
X30799Y-42667D03*
M02*
