G04 (created by PCBNEW (2013-mar-13)-testing) date Tue 03 Jun 2014 05:42:26 PM CEST*
%MOIN*%
G04 Gerber Fmt 3.4, Leading zero omitted, Abs format*
%FSLAX34Y34*%
G01*
G70*
G90*
G04 APERTURE LIST*
%ADD10C,0.005906*%
%ADD11C,0.002362*%
%ADD12C,0.078740*%
%ADD13C,0.244220*%
%ADD14R,0.068000X0.068000*%
%ADD15C,0.068000*%
%ADD16R,0.065087X0.053276*%
%ADD17R,0.047370X0.029654*%
%ADD18R,0.045402X0.047370*%
%ADD19R,0.047370X0.045402*%
%ADD20O,0.094614X0.059181*%
%ADD21R,0.045402X0.079850*%
%ADD22R,0.033591X0.059181*%
%ADD23O,0.055244X0.035559*%
%ADD24R,0.065480X0.086740*%
%ADD25O,0.049339X0.033591*%
%ADD26R,0.106425X0.064102*%
%ADD27R,0.076898X0.023748*%
%ADD28R,0.086740X0.057213*%
%ADD29C,0.126110*%
%ADD30C,0.078866*%
%ADD31R,0.053276X0.065087*%
%ADD32R,0.047370X0.067055*%
%ADD33C,0.067055*%
%ADD34R,0.055244X0.094614*%
%ADD35R,0.094614X0.039496*%
%ADD36R,0.157606X0.098551*%
%ADD37C,0.224535*%
%ADD38R,0.090677X0.063118*%
%ADD39C,0.039496*%
%ADD40C,0.063118*%
%ADD41R,0.063118X0.090677*%
%ADD42R,0.106425X0.055244*%
%ADD43R,0.025717X0.041465*%
%ADD44R,0.106425X0.070992*%
%ADD45C,0.047370*%
%ADD46R,0.069024X0.031622*%
%ADD47R,0.086740X0.086740*%
%ADD48C,0.086740*%
%ADD49C,0.204850*%
G04 APERTURE END LIST*
G54D10*
G54D11*
X87992Y-50590D02*
X87992Y-32086D01*
X28937Y-50590D02*
X87992Y-50590D01*
X28937Y-32086D02*
X28937Y-50590D01*
X87992Y-32086D02*
X28937Y-32086D01*
G54D12*
X29724Y-32874D03*
X87204Y-49803D03*
G54D13*
X81889Y-41338D03*
X35039Y-41338D03*
G54D14*
X36574Y-43200D03*
G54D15*
X36574Y-44200D03*
G54D16*
X35511Y-44212D03*
X35511Y-44921D03*
G54D17*
X33681Y-44114D03*
X33681Y-44862D03*
X34744Y-44114D03*
X33681Y-44488D03*
X34744Y-44862D03*
G54D16*
X32874Y-44212D03*
X32874Y-44921D03*
G54D18*
X33937Y-43346D03*
X34566Y-43346D03*
G54D19*
X33228Y-42440D03*
X33228Y-41811D03*
G54D20*
X29606Y-44694D03*
X29606Y-42549D03*
G54D21*
X30226Y-44798D03*
X30226Y-42445D03*
G54D22*
X29911Y-44694D03*
X29911Y-42549D03*
G54D23*
X29606Y-42549D03*
X29606Y-44694D03*
G54D24*
X30799Y-44763D03*
X30799Y-42480D03*
G54D25*
X30799Y-44576D03*
X30799Y-42667D03*
G54D26*
X29507Y-44000D03*
X29507Y-43243D03*
G54D27*
X30718Y-44133D03*
X30718Y-43877D03*
X30718Y-43622D03*
X30718Y-43366D03*
X30718Y-43110D03*
G54D28*
X32125Y-40994D03*
X32125Y-42470D03*
G54D29*
X31496Y-37598D03*
G54D30*
X33196Y-38188D03*
X33196Y-37007D03*
X35019Y-38661D03*
X35019Y-37677D03*
X35019Y-36692D03*
X36318Y-38661D03*
X36318Y-37677D03*
X36318Y-36692D03*
G54D19*
X32716Y-35000D03*
X32716Y-34370D03*
G54D16*
X36811Y-35433D03*
X36811Y-34724D03*
G54D31*
X38110Y-33543D03*
X37401Y-33543D03*
G54D32*
X46604Y-34330D03*
X45620Y-34330D03*
X44635Y-34330D03*
X43986Y-34330D03*
X43336Y-34330D03*
X42667Y-34330D03*
X41683Y-34330D03*
X40698Y-34330D03*
X39744Y-34330D03*
X39074Y-34330D03*
X37755Y-34330D03*
G54D33*
X47677Y-43897D03*
X38149Y-43897D03*
G54D34*
X48582Y-42598D03*
X37559Y-43070D03*
G54D35*
X50669Y-36929D03*
X49409Y-36929D03*
X49409Y-38818D03*
X50669Y-38818D03*
G54D32*
X60501Y-34330D03*
X59517Y-34330D03*
X58533Y-34330D03*
X57883Y-34330D03*
X57234Y-34330D03*
X56564Y-34330D03*
X55580Y-34330D03*
X54596Y-34330D03*
X53641Y-34330D03*
X52972Y-34330D03*
X51653Y-34330D03*
G54D33*
X61574Y-43897D03*
X52047Y-43897D03*
G54D34*
X62480Y-42598D03*
X51456Y-43070D03*
G54D31*
X51692Y-33543D03*
X50984Y-33543D03*
G54D36*
X64724Y-35964D03*
X64724Y-40570D03*
G54D37*
X64724Y-38267D03*
G54D38*
X67303Y-34940D03*
X70885Y-34940D03*
X67303Y-36712D03*
X70885Y-36712D03*
X73799Y-34940D03*
X77381Y-34940D03*
X73799Y-36712D03*
X77381Y-36712D03*
G54D39*
X79881Y-35984D03*
G54D16*
X80196Y-35039D03*
X80196Y-34330D03*
G54D19*
X79488Y-35078D03*
X79488Y-34448D03*
G54D18*
X84921Y-34803D03*
X85551Y-34803D03*
X84921Y-34173D03*
X85551Y-34173D03*
X84921Y-36929D03*
X85551Y-36929D03*
X84921Y-37559D03*
X85551Y-37559D03*
X78149Y-38110D03*
X78779Y-38110D03*
G54D40*
X79724Y-32874D03*
X78937Y-32874D03*
X80511Y-32874D03*
X78149Y-32874D03*
X75590Y-32874D03*
X74803Y-32874D03*
X76377Y-32874D03*
X74015Y-32874D03*
X71456Y-32874D03*
X70669Y-32874D03*
X72244Y-32874D03*
X69881Y-32874D03*
X69094Y-32874D03*
X68307Y-32874D03*
G54D16*
X72047Y-37322D03*
X72047Y-36614D03*
G54D40*
X65748Y-32874D03*
X64960Y-32874D03*
X66535Y-32874D03*
X64173Y-32874D03*
X63385Y-32874D03*
X62598Y-32874D03*
X61811Y-32874D03*
X61023Y-32874D03*
G54D41*
X84940Y-47460D03*
X84940Y-43877D03*
X86712Y-47460D03*
X86712Y-43877D03*
G54D18*
X83740Y-42716D03*
X84370Y-42716D03*
X85708Y-42716D03*
X86338Y-42716D03*
G54D42*
X83484Y-46653D03*
X83484Y-44685D03*
X81318Y-44685D03*
X81318Y-46653D03*
X81318Y-45669D03*
X83484Y-45669D03*
G54D43*
X78267Y-40059D03*
X78661Y-40059D03*
X79055Y-40059D03*
X79055Y-38917D03*
X78661Y-38917D03*
X78267Y-38917D03*
G54D44*
X78661Y-39488D03*
G54D19*
X79803Y-39133D03*
X79803Y-39763D03*
G54D31*
X67952Y-37834D03*
X67244Y-37834D03*
X67952Y-39133D03*
X67244Y-39133D03*
X67952Y-40433D03*
X67244Y-40433D03*
G54D18*
X67913Y-41417D03*
X67283Y-41417D03*
X67283Y-42047D03*
X67913Y-42047D03*
G54D39*
X69842Y-44251D03*
G54D18*
X67913Y-42677D03*
X67283Y-42677D03*
X67283Y-43307D03*
X67913Y-43307D03*
G54D19*
X68582Y-44803D03*
X68582Y-45433D03*
G54D16*
X69291Y-44842D03*
X69291Y-45551D03*
G54D19*
X70157Y-44803D03*
X70157Y-45433D03*
G54D16*
X70866Y-44842D03*
X70866Y-45551D03*
G54D19*
X71653Y-44803D03*
X71653Y-45433D03*
X72322Y-44803D03*
X72322Y-45433D03*
X73031Y-44803D03*
X73031Y-45433D03*
X73661Y-45433D03*
X73661Y-44803D03*
X74291Y-45433D03*
X74291Y-44803D03*
G54D39*
X75551Y-44842D03*
G54D16*
X71299Y-47480D03*
X71299Y-46771D03*
G54D18*
X76181Y-40236D03*
X75551Y-40236D03*
X76181Y-41377D03*
X75551Y-41377D03*
X76181Y-42362D03*
X75551Y-42362D03*
G54D31*
X76299Y-43070D03*
X75590Y-43070D03*
G54D19*
X77716Y-43700D03*
X77716Y-43070D03*
X78503Y-43700D03*
X78503Y-43070D03*
G54D45*
X71521Y-48582D03*
X72021Y-48582D03*
X72521Y-48582D03*
X73021Y-48582D03*
X73521Y-48582D03*
X71021Y-48582D03*
X70521Y-48582D03*
X70021Y-48582D03*
G54D31*
X70393Y-49448D03*
X71102Y-49448D03*
G54D46*
X33779Y-33935D03*
X33779Y-34435D03*
X33779Y-34935D03*
X33779Y-35435D03*
X35905Y-35435D03*
X35905Y-34935D03*
X35905Y-34435D03*
X35905Y-33935D03*
G54D29*
X31496Y-37598D03*
G54D30*
X29795Y-38188D03*
X29795Y-37007D03*
G54D47*
X30118Y-47047D03*
G54D48*
X50590Y-47047D03*
G54D40*
X87007Y-34251D03*
X87007Y-35039D03*
X87007Y-37007D03*
X87007Y-37795D03*
X87007Y-39763D03*
X87007Y-40551D03*
G54D49*
X82283Y-49015D03*
X53937Y-49015D03*
X30905Y-34055D03*
M02*
