G04 (created by PCBNEW (2013-mar-13)-testing) date Tue 17 Jun 2014 03:31:25 PM CEST*
%MOIN*%
G04 Gerber Fmt 3.4, Leading zero omitted, Abs format*
%FSLAX34Y34*%
G01*
G70*
G90*
G04 APERTURE LIST*
%ADD10C,0.005906*%
%ADD11C,0.002362*%
%ADD12C,0.007874*%
%ADD13C,0.015000*%
%ADD14C,0.006000*%
G04 APERTURE END LIST*
G54D10*
G54D11*
X87992Y-50590D02*
X87992Y-32086D01*
X28937Y-50590D02*
X87992Y-50590D01*
X28937Y-32086D02*
X28937Y-50590D01*
X87992Y-32086D02*
X28937Y-32086D01*
G54D12*
X77582Y-32224D02*
X77582Y-33937D01*
X77582Y-32224D02*
X81519Y-32224D01*
X77582Y-33937D02*
X81519Y-33937D01*
X81519Y-32224D02*
X81519Y-33937D01*
X73448Y-32224D02*
X73448Y-33937D01*
X73448Y-32224D02*
X77385Y-32224D01*
X73448Y-33937D02*
X77385Y-33937D01*
X77385Y-32224D02*
X77385Y-33937D01*
X67740Y-33937D02*
X73251Y-33937D01*
X67740Y-32224D02*
X67740Y-33937D01*
X73251Y-32224D02*
X67740Y-32224D01*
X73251Y-32224D02*
X73251Y-33937D01*
X60456Y-32224D02*
X60456Y-33937D01*
X67543Y-32224D02*
X60456Y-32224D01*
X67543Y-32224D02*
X67543Y-33937D01*
X60456Y-33937D02*
X67543Y-33937D01*
X39685Y-39389D02*
X40039Y-39389D01*
X38562Y-37696D02*
X39133Y-37696D01*
X38779Y-39389D02*
X38562Y-39173D01*
X40039Y-39389D02*
X40255Y-39173D01*
X40255Y-39173D02*
X40255Y-37696D01*
X40255Y-37696D02*
X39685Y-37696D01*
X38562Y-37696D02*
X38562Y-39173D01*
X38779Y-39389D02*
X39133Y-39389D01*
X63031Y-37244D02*
X63031Y-37440D01*
X63031Y-37440D02*
X63425Y-37440D01*
X63425Y-37440D02*
X63425Y-37244D01*
X62598Y-37244D02*
X63858Y-37244D01*
X63858Y-37244D02*
X63858Y-39133D01*
X63858Y-39133D02*
X62598Y-39133D01*
X62598Y-39133D02*
X62598Y-37244D01*
X30299Y-38188D02*
G75*
G03X30299Y-38188I-503J0D01*
G74*
G01*
X31102Y-36220D02*
X31102Y-35629D01*
X31102Y-35629D02*
X31889Y-35629D01*
X31889Y-35629D02*
X31889Y-36220D01*
X31102Y-38976D02*
X31102Y-39566D01*
X31102Y-39566D02*
X31889Y-39566D01*
X31889Y-39566D02*
X31889Y-38976D01*
X29724Y-38700D02*
X29724Y-38976D01*
X29724Y-38976D02*
X33267Y-38976D01*
X33267Y-38976D02*
X33267Y-36220D01*
X33267Y-36220D02*
X29724Y-36220D01*
X29724Y-36220D02*
X29724Y-36496D01*
X44212Y-40433D02*
X44055Y-40433D01*
X44055Y-40433D02*
X44055Y-40669D01*
X44055Y-40669D02*
X44212Y-40669D01*
X44212Y-39685D02*
X44212Y-41417D01*
X41614Y-39685D02*
X41614Y-41417D01*
X51023Y-41220D02*
X50826Y-41220D01*
X50826Y-41220D02*
X50826Y-41535D01*
X50826Y-41535D02*
X51023Y-41535D01*
X51023Y-42165D02*
X51023Y-40590D01*
X49055Y-40590D02*
X49055Y-42165D01*
G54D13*
X29133Y-43700D02*
X51574Y-43700D01*
X51574Y-43700D02*
X51574Y-50393D01*
X51574Y-50393D02*
X29133Y-50393D01*
X29133Y-43700D02*
X29133Y-50393D01*
G54D12*
X70748Y-46338D02*
X71141Y-46338D01*
X71141Y-47047D02*
X70748Y-47047D01*
G54D13*
X69488Y-43503D02*
X69291Y-43503D01*
X69291Y-43503D02*
X69291Y-43307D01*
X69291Y-38976D02*
X69488Y-38779D01*
X69488Y-38779D02*
X73818Y-38779D01*
X73818Y-38779D02*
X74015Y-38976D01*
X74015Y-38976D02*
X74015Y-43307D01*
X74015Y-43307D02*
X73818Y-43503D01*
X73818Y-43503D02*
X69488Y-43503D01*
X69488Y-43503D02*
X69291Y-43307D01*
X69291Y-43307D02*
X69291Y-38976D01*
G54D12*
X74715Y-35472D02*
G75*
G03X74715Y-35472I-40J0D01*
G74*
G01*
X74881Y-35708D02*
X75118Y-35708D01*
X74507Y-36161D02*
X74507Y-36043D01*
X75492Y-36161D02*
X75492Y-36043D01*
X74881Y-36496D02*
X75118Y-36496D01*
X80078Y-36259D02*
G75*
G03X80078Y-36259I-78J0D01*
G74*
G01*
X80000Y-36259D02*
X80000Y-36417D01*
X80000Y-36259D02*
X80157Y-36259D01*
X81968Y-36259D02*
X81968Y-36417D01*
X81968Y-36259D02*
X81811Y-36259D01*
X81968Y-38228D02*
X81968Y-38070D01*
X81968Y-38228D02*
X81811Y-38228D01*
X80000Y-38228D02*
X80157Y-38228D01*
X80000Y-38228D02*
X80000Y-38070D01*
X85944Y-35606D02*
X85944Y-33244D01*
X87657Y-35606D02*
X87657Y-33244D01*
X87657Y-35606D02*
X85944Y-35606D01*
X87657Y-33244D02*
X85944Y-33244D01*
X85944Y-38362D02*
X85944Y-36000D01*
X87657Y-38362D02*
X87657Y-36000D01*
X87657Y-38362D02*
X85944Y-38362D01*
X87657Y-36000D02*
X85944Y-36000D01*
X85944Y-41118D02*
X85944Y-38755D01*
X87657Y-41118D02*
X87657Y-38755D01*
X87657Y-41118D02*
X85944Y-41118D01*
X87657Y-38755D02*
X85944Y-38755D01*
G54D14*
X40271Y-37548D02*
X40285Y-37562D01*
X40328Y-37576D01*
X40357Y-37576D01*
X40400Y-37562D01*
X40428Y-37533D01*
X40443Y-37505D01*
X40457Y-37448D01*
X40457Y-37405D01*
X40443Y-37348D01*
X40428Y-37319D01*
X40400Y-37290D01*
X40357Y-37276D01*
X40328Y-37276D01*
X40285Y-37290D01*
X40271Y-37305D01*
X40014Y-37276D02*
X40071Y-37276D01*
X40100Y-37290D01*
X40114Y-37305D01*
X40143Y-37348D01*
X40157Y-37405D01*
X40157Y-37519D01*
X40143Y-37548D01*
X40128Y-37562D01*
X40100Y-37576D01*
X40043Y-37576D01*
X40014Y-37562D01*
X40000Y-37548D01*
X39985Y-37519D01*
X39985Y-37448D01*
X40000Y-37419D01*
X40014Y-37405D01*
X40043Y-37390D01*
X40100Y-37390D01*
X40128Y-37405D01*
X40143Y-37419D01*
X40157Y-37448D01*
X39843Y-37576D02*
X39785Y-37576D01*
X39757Y-37562D01*
X39743Y-37548D01*
X39714Y-37505D01*
X39700Y-37448D01*
X39700Y-37333D01*
X39714Y-37305D01*
X39728Y-37290D01*
X39757Y-37276D01*
X39814Y-37276D01*
X39843Y-37290D01*
X39857Y-37305D01*
X39871Y-37333D01*
X39871Y-37405D01*
X39857Y-37433D01*
X39843Y-37448D01*
X39814Y-37462D01*
X39757Y-37462D01*
X39728Y-37448D01*
X39714Y-37433D01*
X39700Y-37405D01*
X39169Y-33127D02*
X39269Y-32984D01*
X39340Y-33127D02*
X39340Y-32827D01*
X39226Y-32827D01*
X39197Y-32842D01*
X39183Y-32856D01*
X39169Y-32884D01*
X39169Y-32927D01*
X39183Y-32956D01*
X39197Y-32970D01*
X39226Y-32984D01*
X39340Y-32984D01*
X39069Y-32827D02*
X38883Y-32827D01*
X38983Y-32942D01*
X38940Y-32942D01*
X38912Y-32956D01*
X38897Y-32970D01*
X38883Y-32999D01*
X38883Y-33070D01*
X38897Y-33099D01*
X38912Y-33113D01*
X38940Y-33127D01*
X39026Y-33127D01*
X39054Y-33113D01*
X39069Y-33099D01*
X38783Y-32827D02*
X38583Y-32827D01*
X38712Y-33127D01*
X40035Y-33127D02*
X40135Y-32984D01*
X40206Y-33127D02*
X40206Y-32827D01*
X40092Y-32827D01*
X40063Y-32842D01*
X40049Y-32856D01*
X40035Y-32884D01*
X40035Y-32927D01*
X40049Y-32956D01*
X40063Y-32970D01*
X40092Y-32984D01*
X40206Y-32984D01*
X39935Y-32827D02*
X39749Y-32827D01*
X39849Y-32942D01*
X39806Y-32942D01*
X39778Y-32956D01*
X39763Y-32970D01*
X39749Y-32999D01*
X39749Y-33070D01*
X39763Y-33099D01*
X39778Y-33113D01*
X39806Y-33127D01*
X39892Y-33127D01*
X39921Y-33113D01*
X39935Y-33099D01*
X39606Y-33127D02*
X39549Y-33127D01*
X39521Y-33113D01*
X39506Y-33099D01*
X39478Y-33056D01*
X39463Y-32999D01*
X39463Y-32884D01*
X39478Y-32856D01*
X39492Y-32842D01*
X39521Y-32827D01*
X39578Y-32827D01*
X39606Y-32842D01*
X39621Y-32856D01*
X39635Y-32884D01*
X39635Y-32956D01*
X39621Y-32984D01*
X39606Y-32999D01*
X39578Y-33013D01*
X39521Y-33013D01*
X39492Y-32999D01*
X39478Y-32984D01*
X39463Y-32956D01*
X40940Y-33059D02*
X40955Y-33074D01*
X40998Y-33088D01*
X41026Y-33088D01*
X41069Y-33074D01*
X41098Y-33045D01*
X41112Y-33017D01*
X41126Y-32959D01*
X41126Y-32917D01*
X41112Y-32859D01*
X41098Y-32831D01*
X41069Y-32802D01*
X41026Y-32788D01*
X40998Y-32788D01*
X40955Y-32802D01*
X40940Y-32817D01*
X40669Y-32788D02*
X40812Y-32788D01*
X40826Y-32931D01*
X40812Y-32917D01*
X40783Y-32902D01*
X40712Y-32902D01*
X40683Y-32917D01*
X40669Y-32931D01*
X40655Y-32959D01*
X40655Y-33031D01*
X40669Y-33059D01*
X40683Y-33074D01*
X40712Y-33088D01*
X40783Y-33088D01*
X40812Y-33074D01*
X40826Y-33059D01*
X40512Y-33088D02*
X40455Y-33088D01*
X40426Y-33074D01*
X40412Y-33059D01*
X40383Y-33017D01*
X40369Y-32959D01*
X40369Y-32845D01*
X40383Y-32817D01*
X40398Y-32802D01*
X40426Y-32788D01*
X40483Y-32788D01*
X40512Y-32802D01*
X40526Y-32817D01*
X40540Y-32845D01*
X40540Y-32917D01*
X40526Y-32945D01*
X40512Y-32959D01*
X40483Y-32974D01*
X40426Y-32974D01*
X40398Y-32959D01*
X40383Y-32945D01*
X40369Y-32917D01*
X41885Y-33127D02*
X41985Y-32984D01*
X42057Y-33127D02*
X42057Y-32827D01*
X41942Y-32827D01*
X41914Y-32842D01*
X41900Y-32856D01*
X41885Y-32884D01*
X41885Y-32927D01*
X41900Y-32956D01*
X41914Y-32970D01*
X41942Y-32984D01*
X42057Y-32984D01*
X41628Y-32927D02*
X41628Y-33127D01*
X41700Y-32813D02*
X41771Y-33027D01*
X41585Y-33027D01*
X41314Y-33127D02*
X41485Y-33127D01*
X41400Y-33127D02*
X41400Y-32827D01*
X41428Y-32870D01*
X41457Y-32899D01*
X41485Y-32913D01*
X44011Y-33099D02*
X44026Y-33113D01*
X44068Y-33127D01*
X44097Y-33127D01*
X44140Y-33113D01*
X44168Y-33084D01*
X44183Y-33056D01*
X44197Y-32999D01*
X44197Y-32956D01*
X44183Y-32899D01*
X44168Y-32870D01*
X44140Y-32842D01*
X44097Y-32827D01*
X44068Y-32827D01*
X44026Y-32842D01*
X44011Y-32856D01*
X43754Y-32827D02*
X43811Y-32827D01*
X43840Y-32842D01*
X43854Y-32856D01*
X43883Y-32899D01*
X43897Y-32956D01*
X43897Y-33070D01*
X43883Y-33099D01*
X43868Y-33113D01*
X43840Y-33127D01*
X43783Y-33127D01*
X43754Y-33113D01*
X43740Y-33099D01*
X43726Y-33070D01*
X43726Y-32999D01*
X43740Y-32970D01*
X43754Y-32956D01*
X43783Y-32942D01*
X43840Y-32942D01*
X43868Y-32956D01*
X43883Y-32970D01*
X43897Y-32999D01*
X43440Y-33127D02*
X43611Y-33127D01*
X43526Y-33127D02*
X43526Y-32827D01*
X43554Y-32870D01*
X43583Y-32899D01*
X43611Y-32913D01*
X44838Y-33127D02*
X44938Y-32984D01*
X45009Y-33127D02*
X45009Y-32827D01*
X44895Y-32827D01*
X44867Y-32842D01*
X44852Y-32856D01*
X44838Y-32884D01*
X44838Y-32927D01*
X44852Y-32956D01*
X44867Y-32970D01*
X44895Y-32984D01*
X45009Y-32984D01*
X44581Y-32927D02*
X44581Y-33127D01*
X44652Y-32813D02*
X44724Y-33027D01*
X44538Y-33027D01*
X44452Y-32827D02*
X44267Y-32827D01*
X44367Y-32942D01*
X44324Y-32942D01*
X44295Y-32956D01*
X44281Y-32970D01*
X44267Y-32999D01*
X44267Y-33070D01*
X44281Y-33099D01*
X44295Y-33113D01*
X44324Y-33127D01*
X44409Y-33127D01*
X44438Y-33113D01*
X44452Y-33099D01*
X45822Y-33127D02*
X45922Y-32984D01*
X45994Y-33127D02*
X45994Y-32827D01*
X45879Y-32827D01*
X45851Y-32842D01*
X45837Y-32856D01*
X45822Y-32884D01*
X45822Y-32927D01*
X45837Y-32956D01*
X45851Y-32970D01*
X45879Y-32984D01*
X45994Y-32984D01*
X45565Y-32927D02*
X45565Y-33127D01*
X45637Y-32813D02*
X45708Y-33027D01*
X45522Y-33027D01*
X45265Y-32827D02*
X45408Y-32827D01*
X45422Y-32970D01*
X45408Y-32956D01*
X45379Y-32942D01*
X45308Y-32942D01*
X45279Y-32956D01*
X45265Y-32970D01*
X45251Y-32999D01*
X45251Y-33070D01*
X45265Y-33099D01*
X45279Y-33113D01*
X45308Y-33127D01*
X45379Y-33127D01*
X45408Y-33113D01*
X45422Y-33099D01*
X46807Y-33127D02*
X46907Y-32984D01*
X46978Y-33127D02*
X46978Y-32827D01*
X46864Y-32827D01*
X46835Y-32842D01*
X46821Y-32856D01*
X46807Y-32884D01*
X46807Y-32927D01*
X46821Y-32956D01*
X46835Y-32970D01*
X46864Y-32984D01*
X46978Y-32984D01*
X46549Y-32927D02*
X46549Y-33127D01*
X46621Y-32813D02*
X46692Y-33027D01*
X46507Y-33027D01*
X46421Y-32827D02*
X46221Y-32827D01*
X46349Y-33127D01*
X48066Y-33127D02*
X48209Y-33127D01*
X48209Y-32827D01*
X47809Y-33127D02*
X47981Y-33127D01*
X47895Y-33127D02*
X47895Y-32827D01*
X47924Y-32870D01*
X47952Y-32899D01*
X47981Y-32913D01*
X47524Y-33127D02*
X47695Y-33127D01*
X47609Y-33127D02*
X47609Y-32827D01*
X47638Y-32870D01*
X47666Y-32899D01*
X47695Y-32913D01*
X51388Y-33127D02*
X51531Y-33127D01*
X51531Y-32827D01*
X51274Y-33127D02*
X51217Y-33127D01*
X51188Y-33113D01*
X51174Y-33099D01*
X51145Y-33056D01*
X51131Y-32999D01*
X51131Y-32884D01*
X51145Y-32856D01*
X51160Y-32842D01*
X51188Y-32827D01*
X51245Y-32827D01*
X51274Y-32842D01*
X51288Y-32856D01*
X51302Y-32884D01*
X51302Y-32956D01*
X51288Y-32984D01*
X51274Y-32999D01*
X51245Y-33013D01*
X51188Y-33013D01*
X51160Y-32999D01*
X51145Y-32984D01*
X51131Y-32956D01*
X53106Y-33127D02*
X53206Y-32984D01*
X53277Y-33127D02*
X53277Y-32827D01*
X53163Y-32827D01*
X53134Y-32842D01*
X53120Y-32856D01*
X53106Y-32884D01*
X53106Y-32927D01*
X53120Y-32956D01*
X53134Y-32970D01*
X53163Y-32984D01*
X53277Y-32984D01*
X53006Y-32827D02*
X52820Y-32827D01*
X52920Y-32942D01*
X52877Y-32942D01*
X52849Y-32956D01*
X52834Y-32970D01*
X52820Y-32999D01*
X52820Y-33070D01*
X52834Y-33099D01*
X52849Y-33113D01*
X52877Y-33127D01*
X52963Y-33127D01*
X52991Y-33113D01*
X53006Y-33099D01*
X52563Y-32827D02*
X52620Y-32827D01*
X52649Y-32842D01*
X52663Y-32856D01*
X52691Y-32899D01*
X52706Y-32956D01*
X52706Y-33070D01*
X52691Y-33099D01*
X52677Y-33113D01*
X52649Y-33127D01*
X52591Y-33127D01*
X52563Y-33113D01*
X52549Y-33099D01*
X52534Y-33070D01*
X52534Y-32999D01*
X52549Y-32970D01*
X52563Y-32956D01*
X52591Y-32942D01*
X52649Y-32942D01*
X52677Y-32956D01*
X52691Y-32970D01*
X52706Y-32999D01*
X53933Y-33127D02*
X54033Y-32984D01*
X54104Y-33127D02*
X54104Y-32827D01*
X53990Y-32827D01*
X53961Y-32842D01*
X53947Y-32856D01*
X53933Y-32884D01*
X53933Y-32927D01*
X53947Y-32956D01*
X53961Y-32970D01*
X53990Y-32984D01*
X54104Y-32984D01*
X53833Y-32827D02*
X53647Y-32827D01*
X53747Y-32942D01*
X53704Y-32942D01*
X53675Y-32956D01*
X53661Y-32970D01*
X53647Y-32999D01*
X53647Y-33070D01*
X53661Y-33099D01*
X53675Y-33113D01*
X53704Y-33127D01*
X53790Y-33127D01*
X53818Y-33113D01*
X53833Y-33099D01*
X53475Y-32956D02*
X53504Y-32942D01*
X53518Y-32927D01*
X53533Y-32899D01*
X53533Y-32884D01*
X53518Y-32856D01*
X53504Y-32842D01*
X53475Y-32827D01*
X53418Y-32827D01*
X53390Y-32842D01*
X53375Y-32856D01*
X53361Y-32884D01*
X53361Y-32899D01*
X53375Y-32927D01*
X53390Y-32942D01*
X53418Y-32956D01*
X53475Y-32956D01*
X53504Y-32970D01*
X53518Y-32984D01*
X53533Y-33013D01*
X53533Y-33070D01*
X53518Y-33099D01*
X53504Y-33113D01*
X53475Y-33127D01*
X53418Y-33127D01*
X53390Y-33113D01*
X53375Y-33099D01*
X53361Y-33070D01*
X53361Y-33013D01*
X53375Y-32984D01*
X53390Y-32970D01*
X53418Y-32956D01*
X54838Y-33059D02*
X54852Y-33074D01*
X54895Y-33088D01*
X54924Y-33088D01*
X54967Y-33074D01*
X54995Y-33045D01*
X55009Y-33017D01*
X55024Y-32959D01*
X55024Y-32917D01*
X55009Y-32859D01*
X54995Y-32831D01*
X54967Y-32802D01*
X54924Y-32788D01*
X54895Y-32788D01*
X54852Y-32802D01*
X54838Y-32817D01*
X54567Y-32788D02*
X54709Y-32788D01*
X54724Y-32931D01*
X54709Y-32917D01*
X54681Y-32902D01*
X54609Y-32902D01*
X54581Y-32917D01*
X54567Y-32931D01*
X54552Y-32959D01*
X54552Y-33031D01*
X54567Y-33059D01*
X54581Y-33074D01*
X54609Y-33088D01*
X54681Y-33088D01*
X54709Y-33074D01*
X54724Y-33059D01*
X54381Y-32917D02*
X54409Y-32902D01*
X54424Y-32888D01*
X54438Y-32859D01*
X54438Y-32845D01*
X54424Y-32817D01*
X54409Y-32802D01*
X54381Y-32788D01*
X54324Y-32788D01*
X54295Y-32802D01*
X54281Y-32817D01*
X54267Y-32845D01*
X54267Y-32859D01*
X54281Y-32888D01*
X54295Y-32902D01*
X54324Y-32917D01*
X54381Y-32917D01*
X54409Y-32931D01*
X54424Y-32945D01*
X54438Y-32974D01*
X54438Y-33031D01*
X54424Y-33059D01*
X54409Y-33074D01*
X54381Y-33088D01*
X54324Y-33088D01*
X54295Y-33074D01*
X54281Y-33059D01*
X54267Y-33031D01*
X54267Y-32974D01*
X54281Y-32945D01*
X54295Y-32931D01*
X54324Y-32917D01*
X55783Y-33127D02*
X55883Y-32984D01*
X55954Y-33127D02*
X55954Y-32827D01*
X55840Y-32827D01*
X55811Y-32842D01*
X55797Y-32856D01*
X55783Y-32884D01*
X55783Y-32927D01*
X55797Y-32956D01*
X55811Y-32970D01*
X55840Y-32984D01*
X55954Y-32984D01*
X55526Y-32927D02*
X55526Y-33127D01*
X55597Y-32813D02*
X55669Y-33027D01*
X55483Y-33027D01*
X55311Y-32827D02*
X55283Y-32827D01*
X55254Y-32842D01*
X55240Y-32856D01*
X55226Y-32884D01*
X55211Y-32942D01*
X55211Y-33013D01*
X55226Y-33070D01*
X55240Y-33099D01*
X55254Y-33113D01*
X55283Y-33127D01*
X55311Y-33127D01*
X55340Y-33113D01*
X55354Y-33099D01*
X55369Y-33070D01*
X55383Y-33013D01*
X55383Y-32942D01*
X55369Y-32884D01*
X55354Y-32856D01*
X55340Y-32842D01*
X55311Y-32827D01*
X57791Y-33099D02*
X57805Y-33113D01*
X57848Y-33127D01*
X57876Y-33127D01*
X57919Y-33113D01*
X57948Y-33084D01*
X57962Y-33056D01*
X57976Y-32999D01*
X57976Y-32956D01*
X57962Y-32899D01*
X57948Y-32870D01*
X57919Y-32842D01*
X57876Y-32827D01*
X57848Y-32827D01*
X57805Y-32842D01*
X57791Y-32856D01*
X57534Y-32827D02*
X57591Y-32827D01*
X57619Y-32842D01*
X57634Y-32856D01*
X57662Y-32899D01*
X57676Y-32956D01*
X57676Y-33070D01*
X57662Y-33099D01*
X57648Y-33113D01*
X57619Y-33127D01*
X57562Y-33127D01*
X57534Y-33113D01*
X57519Y-33099D01*
X57505Y-33070D01*
X57505Y-32999D01*
X57519Y-32970D01*
X57534Y-32956D01*
X57562Y-32942D01*
X57619Y-32942D01*
X57648Y-32956D01*
X57662Y-32970D01*
X57676Y-32999D01*
X57319Y-32827D02*
X57291Y-32827D01*
X57262Y-32842D01*
X57248Y-32856D01*
X57234Y-32884D01*
X57219Y-32942D01*
X57219Y-33013D01*
X57234Y-33070D01*
X57248Y-33099D01*
X57262Y-33113D01*
X57291Y-33127D01*
X57319Y-33127D01*
X57348Y-33113D01*
X57362Y-33099D01*
X57376Y-33070D01*
X57391Y-33013D01*
X57391Y-32942D01*
X57376Y-32884D01*
X57362Y-32856D01*
X57348Y-32842D01*
X57319Y-32827D01*
X58618Y-33127D02*
X58718Y-32984D01*
X58789Y-33127D02*
X58789Y-32827D01*
X58675Y-32827D01*
X58646Y-32842D01*
X58632Y-32856D01*
X58618Y-32884D01*
X58618Y-32927D01*
X58632Y-32956D01*
X58646Y-32970D01*
X58675Y-32984D01*
X58789Y-32984D01*
X58360Y-32927D02*
X58360Y-33127D01*
X58432Y-32813D02*
X58503Y-33027D01*
X58318Y-33027D01*
X58218Y-32856D02*
X58203Y-32842D01*
X58175Y-32827D01*
X58103Y-32827D01*
X58075Y-32842D01*
X58060Y-32856D01*
X58046Y-32884D01*
X58046Y-32913D01*
X58060Y-32956D01*
X58232Y-33127D01*
X58046Y-33127D01*
X59444Y-33127D02*
X59544Y-32984D01*
X59616Y-33127D02*
X59616Y-32827D01*
X59501Y-32827D01*
X59473Y-32842D01*
X59459Y-32856D01*
X59444Y-32884D01*
X59444Y-32927D01*
X59459Y-32956D01*
X59473Y-32970D01*
X59501Y-32984D01*
X59616Y-32984D01*
X59187Y-32927D02*
X59187Y-33127D01*
X59259Y-32813D02*
X59330Y-33027D01*
X59144Y-33027D01*
X58901Y-32927D02*
X58901Y-33127D01*
X58973Y-32813D02*
X59044Y-33027D01*
X58859Y-33027D01*
X60271Y-33127D02*
X60371Y-32984D01*
X60443Y-33127D02*
X60443Y-32827D01*
X60328Y-32827D01*
X60300Y-32842D01*
X60285Y-32856D01*
X60271Y-32884D01*
X60271Y-32927D01*
X60285Y-32956D01*
X60300Y-32970D01*
X60328Y-32984D01*
X60443Y-32984D01*
X60014Y-32927D02*
X60014Y-33127D01*
X60085Y-32813D02*
X60157Y-33027D01*
X59971Y-33027D01*
X59728Y-32827D02*
X59785Y-32827D01*
X59814Y-32842D01*
X59828Y-32856D01*
X59857Y-32899D01*
X59871Y-32956D01*
X59871Y-33070D01*
X59857Y-33099D01*
X59843Y-33113D01*
X59814Y-33127D01*
X59757Y-33127D01*
X59728Y-33113D01*
X59714Y-33099D01*
X59700Y-33070D01*
X59700Y-32999D01*
X59714Y-32970D01*
X59728Y-32956D01*
X59757Y-32942D01*
X59814Y-32942D01*
X59843Y-32956D01*
X59857Y-32970D01*
X59871Y-32999D01*
X59641Y-36957D02*
X59655Y-36971D01*
X59698Y-36986D01*
X59727Y-36986D01*
X59770Y-36971D01*
X59798Y-36943D01*
X59813Y-36914D01*
X59827Y-36857D01*
X59827Y-36814D01*
X59813Y-36757D01*
X59798Y-36728D01*
X59770Y-36700D01*
X59727Y-36686D01*
X59698Y-36686D01*
X59655Y-36700D01*
X59641Y-36714D01*
X59384Y-36686D02*
X59441Y-36686D01*
X59470Y-36700D01*
X59484Y-36714D01*
X59513Y-36757D01*
X59527Y-36814D01*
X59527Y-36928D01*
X59513Y-36957D01*
X59498Y-36971D01*
X59470Y-36986D01*
X59413Y-36986D01*
X59384Y-36971D01*
X59370Y-36957D01*
X59355Y-36928D01*
X59355Y-36857D01*
X59370Y-36828D01*
X59384Y-36814D01*
X59413Y-36800D01*
X59470Y-36800D01*
X59498Y-36814D01*
X59513Y-36828D01*
X59527Y-36857D01*
X59084Y-36686D02*
X59227Y-36686D01*
X59241Y-36828D01*
X59227Y-36814D01*
X59198Y-36800D01*
X59127Y-36800D01*
X59098Y-36814D01*
X59084Y-36828D01*
X59070Y-36857D01*
X59070Y-36928D01*
X59084Y-36957D01*
X59098Y-36971D01*
X59127Y-36986D01*
X59198Y-36986D01*
X59227Y-36971D01*
X59241Y-36957D01*
X60271Y-38757D02*
X60371Y-38614D01*
X60443Y-38757D02*
X60443Y-38457D01*
X60328Y-38457D01*
X60300Y-38472D01*
X60285Y-38486D01*
X60271Y-38514D01*
X60271Y-38557D01*
X60285Y-38586D01*
X60300Y-38600D01*
X60328Y-38614D01*
X60443Y-38614D01*
X60000Y-38457D02*
X60143Y-38457D01*
X60157Y-38600D01*
X60143Y-38586D01*
X60114Y-38572D01*
X60043Y-38572D01*
X60014Y-38586D01*
X60000Y-38600D01*
X59985Y-38629D01*
X59985Y-38700D01*
X60000Y-38729D01*
X60014Y-38743D01*
X60043Y-38757D01*
X60114Y-38757D01*
X60143Y-38743D01*
X60157Y-38729D01*
X59714Y-38457D02*
X59857Y-38457D01*
X59871Y-38600D01*
X59857Y-38586D01*
X59828Y-38572D01*
X59757Y-38572D01*
X59728Y-38586D01*
X59714Y-38600D01*
X59700Y-38629D01*
X59700Y-38700D01*
X59714Y-38729D01*
X59728Y-38743D01*
X59757Y-38757D01*
X59828Y-38757D01*
X59857Y-38743D01*
X59871Y-38729D01*
X60901Y-36356D02*
X61001Y-36213D01*
X61072Y-36356D02*
X61072Y-36056D01*
X60958Y-36056D01*
X60930Y-36070D01*
X60915Y-36084D01*
X60901Y-36113D01*
X60901Y-36156D01*
X60915Y-36184D01*
X60930Y-36199D01*
X60958Y-36213D01*
X61072Y-36213D01*
X60615Y-36356D02*
X60787Y-36356D01*
X60701Y-36356D02*
X60701Y-36056D01*
X60730Y-36099D01*
X60758Y-36127D01*
X60787Y-36141D01*
X60344Y-36056D02*
X60487Y-36056D01*
X60501Y-36199D01*
X60487Y-36184D01*
X60458Y-36170D01*
X60387Y-36170D01*
X60358Y-36184D01*
X60344Y-36199D01*
X60330Y-36227D01*
X60330Y-36299D01*
X60344Y-36327D01*
X60358Y-36341D01*
X60387Y-36356D01*
X60458Y-36356D01*
X60487Y-36341D01*
X60501Y-36327D01*
X61492Y-38127D02*
X61592Y-37984D01*
X61663Y-38127D02*
X61663Y-37827D01*
X61549Y-37827D01*
X61520Y-37842D01*
X61506Y-37856D01*
X61492Y-37884D01*
X61492Y-37927D01*
X61506Y-37956D01*
X61520Y-37970D01*
X61549Y-37984D01*
X61663Y-37984D01*
X61234Y-37927D02*
X61234Y-38127D01*
X61306Y-37813D02*
X61377Y-38027D01*
X61192Y-38027D01*
X61063Y-38127D02*
X61006Y-38127D01*
X60977Y-38113D01*
X60963Y-38099D01*
X60934Y-38056D01*
X60920Y-37999D01*
X60920Y-37884D01*
X60934Y-37856D01*
X60949Y-37842D01*
X60977Y-37827D01*
X61034Y-37827D01*
X61063Y-37842D01*
X61077Y-37856D01*
X61092Y-37884D01*
X61092Y-37956D01*
X61077Y-37984D01*
X61063Y-37999D01*
X61034Y-38013D01*
X60977Y-38013D01*
X60949Y-37999D01*
X60934Y-37984D01*
X60920Y-37956D01*
X63421Y-36434D02*
X63521Y-36292D01*
X63592Y-36434D02*
X63592Y-36134D01*
X63478Y-36134D01*
X63449Y-36149D01*
X63435Y-36163D01*
X63421Y-36192D01*
X63421Y-36234D01*
X63435Y-36263D01*
X63449Y-36277D01*
X63478Y-36292D01*
X63592Y-36292D01*
X63149Y-36134D02*
X63292Y-36134D01*
X63306Y-36277D01*
X63292Y-36263D01*
X63264Y-36249D01*
X63192Y-36249D01*
X63164Y-36263D01*
X63149Y-36277D01*
X63135Y-36306D01*
X63135Y-36377D01*
X63149Y-36406D01*
X63164Y-36420D01*
X63192Y-36434D01*
X63264Y-36434D01*
X63292Y-36420D01*
X63306Y-36406D01*
X63035Y-36134D02*
X62835Y-36134D01*
X62964Y-36434D01*
X64741Y-36843D02*
X64741Y-37086D01*
X64727Y-37115D01*
X64712Y-37129D01*
X64684Y-37143D01*
X64627Y-37143D01*
X64598Y-37129D01*
X64584Y-37115D01*
X64570Y-37086D01*
X64570Y-36843D01*
X64270Y-37143D02*
X64441Y-37143D01*
X64355Y-37143D02*
X64355Y-36843D01*
X64384Y-36886D01*
X64412Y-36915D01*
X64441Y-36929D01*
X64084Y-36843D02*
X64055Y-36843D01*
X64027Y-36857D01*
X64012Y-36872D01*
X63998Y-36900D01*
X63984Y-36957D01*
X63984Y-37029D01*
X63998Y-37086D01*
X64012Y-37115D01*
X64027Y-37129D01*
X64055Y-37143D01*
X64084Y-37143D01*
X64112Y-37129D01*
X64127Y-37115D01*
X64141Y-37086D01*
X64155Y-37029D01*
X64155Y-36957D01*
X64141Y-36900D01*
X64127Y-36872D01*
X64112Y-36857D01*
X64084Y-36843D01*
X32937Y-39427D02*
X32937Y-39127D01*
X32823Y-39127D01*
X32795Y-39141D01*
X32780Y-39155D01*
X32766Y-39184D01*
X32766Y-39227D01*
X32780Y-39255D01*
X32795Y-39269D01*
X32823Y-39284D01*
X32937Y-39284D01*
X32480Y-39427D02*
X32652Y-39427D01*
X32566Y-39427D02*
X32566Y-39127D01*
X32595Y-39169D01*
X32623Y-39198D01*
X32652Y-39212D01*
X33127Y-39599D02*
X32941Y-39599D01*
X33041Y-39713D01*
X32998Y-39713D01*
X32970Y-39728D01*
X32955Y-39742D01*
X32941Y-39770D01*
X32941Y-39842D01*
X32955Y-39870D01*
X32970Y-39885D01*
X32998Y-39899D01*
X33084Y-39899D01*
X33113Y-39885D01*
X33127Y-39870D01*
X32855Y-39599D02*
X32755Y-39899D01*
X32655Y-39599D01*
X32584Y-39599D02*
X32398Y-39599D01*
X32498Y-39713D01*
X32455Y-39713D01*
X32427Y-39728D01*
X32413Y-39742D01*
X32398Y-39770D01*
X32398Y-39842D01*
X32413Y-39870D01*
X32427Y-39885D01*
X32455Y-39899D01*
X32541Y-39899D01*
X32570Y-39885D01*
X32584Y-39870D01*
X37948Y-42351D02*
X37963Y-42365D01*
X38005Y-42379D01*
X38034Y-42379D01*
X38077Y-42365D01*
X38105Y-42336D01*
X38120Y-42308D01*
X38134Y-42251D01*
X38134Y-42208D01*
X38120Y-42151D01*
X38105Y-42122D01*
X38077Y-42094D01*
X38034Y-42079D01*
X38005Y-42079D01*
X37963Y-42094D01*
X37948Y-42108D01*
X37848Y-42079D02*
X37648Y-42079D01*
X37777Y-42379D01*
X37477Y-42079D02*
X37448Y-42079D01*
X37420Y-42094D01*
X37405Y-42108D01*
X37391Y-42136D01*
X37377Y-42194D01*
X37377Y-42265D01*
X37391Y-42322D01*
X37405Y-42351D01*
X37420Y-42365D01*
X37448Y-42379D01*
X37477Y-42379D01*
X37505Y-42365D01*
X37520Y-42351D01*
X37534Y-42322D01*
X37548Y-42265D01*
X37548Y-42194D01*
X37534Y-42136D01*
X37520Y-42108D01*
X37505Y-42094D01*
X37477Y-42079D01*
X39562Y-42863D02*
X39577Y-42877D01*
X39620Y-42891D01*
X39648Y-42891D01*
X39691Y-42877D01*
X39720Y-42848D01*
X39734Y-42820D01*
X39748Y-42763D01*
X39748Y-42720D01*
X39734Y-42663D01*
X39720Y-42634D01*
X39691Y-42605D01*
X39648Y-42591D01*
X39620Y-42591D01*
X39577Y-42605D01*
X39562Y-42620D01*
X39291Y-42591D02*
X39434Y-42591D01*
X39448Y-42734D01*
X39434Y-42720D01*
X39405Y-42705D01*
X39334Y-42705D01*
X39305Y-42720D01*
X39291Y-42734D01*
X39277Y-42763D01*
X39277Y-42834D01*
X39291Y-42863D01*
X39305Y-42877D01*
X39334Y-42891D01*
X39405Y-42891D01*
X39434Y-42877D01*
X39448Y-42863D01*
X38991Y-42891D02*
X39162Y-42891D01*
X39077Y-42891D02*
X39077Y-42591D01*
X39105Y-42634D01*
X39134Y-42663D01*
X39162Y-42677D01*
X46649Y-42863D02*
X46663Y-42877D01*
X46706Y-42891D01*
X46735Y-42891D01*
X46778Y-42877D01*
X46806Y-42848D01*
X46820Y-42820D01*
X46835Y-42763D01*
X46835Y-42720D01*
X46820Y-42663D01*
X46806Y-42634D01*
X46778Y-42605D01*
X46735Y-42591D01*
X46706Y-42591D01*
X46663Y-42605D01*
X46649Y-42620D01*
X46392Y-42591D02*
X46449Y-42591D01*
X46478Y-42605D01*
X46492Y-42620D01*
X46520Y-42663D01*
X46535Y-42720D01*
X46535Y-42834D01*
X46520Y-42863D01*
X46506Y-42877D01*
X46478Y-42891D01*
X46420Y-42891D01*
X46392Y-42877D01*
X46378Y-42863D01*
X46363Y-42834D01*
X46363Y-42763D01*
X46378Y-42734D01*
X46392Y-42720D01*
X46420Y-42705D01*
X46478Y-42705D01*
X46506Y-42720D01*
X46520Y-42734D01*
X46535Y-42763D01*
X46106Y-42691D02*
X46106Y-42891D01*
X46178Y-42577D02*
X46249Y-42791D01*
X46063Y-42791D01*
X42712Y-37863D02*
X42726Y-37877D01*
X42769Y-37891D01*
X42798Y-37891D01*
X42841Y-37877D01*
X42869Y-37848D01*
X42883Y-37820D01*
X42898Y-37763D01*
X42898Y-37720D01*
X42883Y-37663D01*
X42869Y-37634D01*
X42841Y-37605D01*
X42798Y-37591D01*
X42769Y-37591D01*
X42726Y-37605D01*
X42712Y-37620D01*
X42455Y-37591D02*
X42512Y-37591D01*
X42541Y-37605D01*
X42555Y-37620D01*
X42583Y-37663D01*
X42598Y-37720D01*
X42598Y-37834D01*
X42583Y-37863D01*
X42569Y-37877D01*
X42541Y-37891D01*
X42483Y-37891D01*
X42455Y-37877D01*
X42441Y-37863D01*
X42426Y-37834D01*
X42426Y-37763D01*
X42441Y-37734D01*
X42455Y-37720D01*
X42483Y-37705D01*
X42541Y-37705D01*
X42569Y-37720D01*
X42583Y-37734D01*
X42598Y-37763D01*
X42326Y-37591D02*
X42141Y-37591D01*
X42241Y-37705D01*
X42198Y-37705D01*
X42169Y-37720D01*
X42155Y-37734D01*
X42141Y-37763D01*
X42141Y-37834D01*
X42155Y-37863D01*
X42169Y-37877D01*
X42198Y-37891D01*
X42283Y-37891D01*
X42312Y-37877D01*
X42326Y-37863D01*
X49287Y-38965D02*
X49301Y-38979D01*
X49344Y-38993D01*
X49373Y-38993D01*
X49415Y-38979D01*
X49444Y-38951D01*
X49458Y-38922D01*
X49473Y-38865D01*
X49473Y-38822D01*
X49458Y-38765D01*
X49444Y-38736D01*
X49415Y-38708D01*
X49373Y-38693D01*
X49344Y-38693D01*
X49301Y-38708D01*
X49287Y-38722D01*
X49030Y-38793D02*
X49030Y-38993D01*
X49101Y-38679D02*
X49173Y-38893D01*
X48987Y-38893D01*
X48830Y-38822D02*
X48858Y-38808D01*
X48873Y-38793D01*
X48887Y-38765D01*
X48887Y-38751D01*
X48873Y-38722D01*
X48858Y-38708D01*
X48830Y-38693D01*
X48773Y-38693D01*
X48744Y-38708D01*
X48730Y-38722D01*
X48715Y-38751D01*
X48715Y-38765D01*
X48730Y-38793D01*
X48744Y-38808D01*
X48773Y-38822D01*
X48830Y-38822D01*
X48858Y-38836D01*
X48873Y-38851D01*
X48887Y-38879D01*
X48887Y-38936D01*
X48873Y-38965D01*
X48858Y-38979D01*
X48830Y-38993D01*
X48773Y-38993D01*
X48744Y-38979D01*
X48730Y-38965D01*
X48715Y-38936D01*
X48715Y-38879D01*
X48730Y-38851D01*
X48744Y-38836D01*
X48773Y-38822D01*
X42712Y-43492D02*
X42726Y-43507D01*
X42769Y-43521D01*
X42798Y-43521D01*
X42841Y-43507D01*
X42869Y-43478D01*
X42883Y-43450D01*
X42898Y-43392D01*
X42898Y-43350D01*
X42883Y-43292D01*
X42869Y-43264D01*
X42841Y-43235D01*
X42798Y-43221D01*
X42769Y-43221D01*
X42726Y-43235D01*
X42712Y-43250D01*
X42455Y-43221D02*
X42512Y-43221D01*
X42541Y-43235D01*
X42555Y-43250D01*
X42583Y-43292D01*
X42598Y-43350D01*
X42598Y-43464D01*
X42583Y-43492D01*
X42569Y-43507D01*
X42541Y-43521D01*
X42483Y-43521D01*
X42455Y-43507D01*
X42441Y-43492D01*
X42426Y-43464D01*
X42426Y-43392D01*
X42441Y-43364D01*
X42455Y-43350D01*
X42483Y-43335D01*
X42541Y-43335D01*
X42569Y-43350D01*
X42583Y-43364D01*
X42598Y-43392D01*
X42312Y-43250D02*
X42298Y-43235D01*
X42269Y-43221D01*
X42198Y-43221D01*
X42169Y-43235D01*
X42155Y-43250D01*
X42141Y-43278D01*
X42141Y-43307D01*
X42155Y-43350D01*
X42326Y-43521D01*
X42141Y-43521D01*
X44716Y-41567D02*
X44716Y-41810D01*
X44702Y-41839D01*
X44688Y-41853D01*
X44659Y-41867D01*
X44602Y-41867D01*
X44573Y-41853D01*
X44559Y-41839D01*
X44545Y-41810D01*
X44545Y-41567D01*
X44388Y-41867D02*
X44331Y-41867D01*
X44302Y-41853D01*
X44288Y-41839D01*
X44259Y-41796D01*
X44245Y-41739D01*
X44245Y-41625D01*
X44259Y-41596D01*
X44273Y-41582D01*
X44302Y-41567D01*
X44359Y-41567D01*
X44388Y-41582D01*
X44402Y-41596D01*
X44416Y-41625D01*
X44416Y-41696D01*
X44402Y-41725D01*
X44388Y-41739D01*
X44359Y-41753D01*
X44302Y-41753D01*
X44273Y-41739D01*
X44259Y-41725D01*
X44245Y-41696D01*
X51177Y-38965D02*
X51191Y-38979D01*
X51234Y-38993D01*
X51262Y-38993D01*
X51305Y-38979D01*
X51334Y-38951D01*
X51348Y-38922D01*
X51362Y-38865D01*
X51362Y-38822D01*
X51348Y-38765D01*
X51334Y-38736D01*
X51305Y-38708D01*
X51262Y-38693D01*
X51234Y-38693D01*
X51191Y-38708D01*
X51177Y-38722D01*
X51077Y-38693D02*
X50891Y-38693D01*
X50991Y-38808D01*
X50948Y-38808D01*
X50919Y-38822D01*
X50905Y-38836D01*
X50891Y-38865D01*
X50891Y-38936D01*
X50905Y-38965D01*
X50919Y-38979D01*
X50948Y-38993D01*
X51034Y-38993D01*
X51062Y-38979D01*
X51077Y-38965D01*
X50748Y-38993D02*
X50691Y-38993D01*
X50662Y-38979D01*
X50648Y-38965D01*
X50619Y-38922D01*
X50605Y-38865D01*
X50605Y-38751D01*
X50619Y-38722D01*
X50634Y-38708D01*
X50662Y-38693D01*
X50719Y-38693D01*
X50748Y-38708D01*
X50762Y-38722D01*
X50777Y-38751D01*
X50777Y-38822D01*
X50762Y-38851D01*
X50748Y-38865D01*
X50719Y-38879D01*
X50662Y-38879D01*
X50634Y-38865D01*
X50619Y-38851D01*
X50605Y-38822D01*
X51467Y-40647D02*
X51567Y-40504D01*
X51638Y-40647D02*
X51638Y-40347D01*
X51524Y-40347D01*
X51495Y-40361D01*
X51481Y-40376D01*
X51467Y-40404D01*
X51467Y-40447D01*
X51481Y-40476D01*
X51495Y-40490D01*
X51524Y-40504D01*
X51638Y-40504D01*
X51353Y-40376D02*
X51338Y-40361D01*
X51310Y-40347D01*
X51238Y-40347D01*
X51210Y-40361D01*
X51195Y-40376D01*
X51181Y-40404D01*
X51181Y-40433D01*
X51195Y-40476D01*
X51367Y-40647D01*
X51181Y-40647D01*
X51488Y-42316D02*
X51488Y-42558D01*
X51474Y-42587D01*
X51459Y-42601D01*
X51431Y-42616D01*
X51374Y-42616D01*
X51345Y-42601D01*
X51331Y-42587D01*
X51316Y-42558D01*
X51316Y-42316D01*
X51131Y-42444D02*
X51159Y-42430D01*
X51174Y-42416D01*
X51188Y-42387D01*
X51188Y-42373D01*
X51174Y-42344D01*
X51159Y-42330D01*
X51131Y-42316D01*
X51074Y-42316D01*
X51045Y-42330D01*
X51031Y-42344D01*
X51016Y-42373D01*
X51016Y-42387D01*
X51031Y-42416D01*
X51045Y-42430D01*
X51074Y-42444D01*
X51131Y-42444D01*
X51159Y-42458D01*
X51174Y-42473D01*
X51188Y-42501D01*
X51188Y-42558D01*
X51174Y-42587D01*
X51159Y-42601D01*
X51131Y-42616D01*
X51074Y-42616D01*
X51045Y-42601D01*
X51031Y-42587D01*
X51016Y-42558D01*
X51016Y-42501D01*
X51031Y-42473D01*
X51045Y-42458D01*
X51074Y-42444D01*
X48553Y-43335D02*
X48568Y-43349D01*
X48611Y-43364D01*
X48639Y-43364D01*
X48682Y-43349D01*
X48711Y-43321D01*
X48725Y-43292D01*
X48739Y-43235D01*
X48739Y-43192D01*
X48725Y-43135D01*
X48711Y-43106D01*
X48682Y-43078D01*
X48639Y-43064D01*
X48611Y-43064D01*
X48568Y-43078D01*
X48553Y-43092D01*
X48382Y-43192D02*
X48411Y-43178D01*
X48425Y-43164D01*
X48439Y-43135D01*
X48439Y-43121D01*
X48425Y-43092D01*
X48411Y-43078D01*
X48382Y-43064D01*
X48325Y-43064D01*
X48296Y-43078D01*
X48282Y-43092D01*
X48268Y-43121D01*
X48268Y-43135D01*
X48282Y-43164D01*
X48296Y-43178D01*
X48325Y-43192D01*
X48382Y-43192D01*
X48411Y-43206D01*
X48425Y-43221D01*
X48439Y-43249D01*
X48439Y-43306D01*
X48425Y-43335D01*
X48411Y-43349D01*
X48382Y-43364D01*
X48325Y-43364D01*
X48296Y-43349D01*
X48282Y-43335D01*
X48268Y-43306D01*
X48268Y-43249D01*
X48282Y-43221D01*
X48296Y-43206D01*
X48325Y-43192D01*
X51885Y-43335D02*
X51900Y-43349D01*
X51942Y-43364D01*
X51971Y-43364D01*
X52014Y-43349D01*
X52042Y-43321D01*
X52057Y-43292D01*
X52071Y-43235D01*
X52071Y-43192D01*
X52057Y-43135D01*
X52042Y-43106D01*
X52014Y-43078D01*
X51971Y-43064D01*
X51942Y-43064D01*
X51900Y-43078D01*
X51885Y-43092D01*
X51600Y-43364D02*
X51771Y-43364D01*
X51685Y-43364D02*
X51685Y-43064D01*
X51714Y-43106D01*
X51742Y-43135D01*
X51771Y-43149D01*
X51500Y-43064D02*
X51314Y-43064D01*
X51414Y-43178D01*
X51371Y-43178D01*
X51342Y-43192D01*
X51328Y-43206D01*
X51314Y-43235D01*
X51314Y-43306D01*
X51328Y-43335D01*
X51342Y-43349D01*
X51371Y-43364D01*
X51457Y-43364D01*
X51485Y-43349D01*
X51500Y-43335D01*
X40740Y-47025D02*
X40697Y-47040D01*
X40682Y-47054D01*
X40668Y-47082D01*
X40668Y-47125D01*
X40682Y-47154D01*
X40697Y-47168D01*
X40725Y-47182D01*
X40840Y-47182D01*
X40840Y-46882D01*
X40740Y-46882D01*
X40711Y-46897D01*
X40697Y-46911D01*
X40682Y-46940D01*
X40682Y-46968D01*
X40697Y-46997D01*
X40711Y-47011D01*
X40740Y-47025D01*
X40840Y-47025D01*
X40582Y-46882D02*
X40411Y-46882D01*
X40497Y-47182D02*
X40497Y-46882D01*
X40211Y-47025D02*
X40168Y-47040D01*
X40154Y-47054D01*
X40140Y-47082D01*
X40140Y-47125D01*
X40154Y-47154D01*
X40168Y-47168D01*
X40197Y-47182D01*
X40311Y-47182D01*
X40311Y-46882D01*
X40211Y-46882D01*
X40182Y-46897D01*
X40168Y-46911D01*
X40154Y-46940D01*
X40154Y-46968D01*
X40168Y-46997D01*
X40182Y-47011D01*
X40211Y-47025D01*
X40311Y-47025D01*
X39854Y-47182D02*
X40025Y-47182D01*
X39940Y-47182D02*
X39940Y-46882D01*
X39968Y-46925D01*
X39997Y-46954D01*
X40025Y-46968D01*
X32143Y-48509D02*
X31243Y-48509D01*
X49662Y-48509D02*
X48762Y-48509D01*
X49212Y-48959D02*
X49212Y-48059D01*
X70940Y-50146D02*
X70955Y-50160D01*
X70998Y-50175D01*
X71026Y-50175D01*
X71069Y-50160D01*
X71098Y-50132D01*
X71112Y-50103D01*
X71126Y-50046D01*
X71126Y-50003D01*
X71112Y-49946D01*
X71098Y-49917D01*
X71069Y-49889D01*
X71026Y-49875D01*
X70998Y-49875D01*
X70955Y-49889D01*
X70940Y-49903D01*
X70683Y-49875D02*
X70740Y-49875D01*
X70769Y-49889D01*
X70783Y-49903D01*
X70812Y-49946D01*
X70826Y-50003D01*
X70826Y-50117D01*
X70812Y-50146D01*
X70798Y-50160D01*
X70769Y-50175D01*
X70712Y-50175D01*
X70683Y-50160D01*
X70669Y-50146D01*
X70655Y-50117D01*
X70655Y-50046D01*
X70669Y-50017D01*
X70683Y-50003D01*
X70712Y-49989D01*
X70769Y-49989D01*
X70798Y-50003D01*
X70812Y-50017D01*
X70826Y-50046D01*
X70483Y-50003D02*
X70512Y-49989D01*
X70526Y-49975D01*
X70540Y-49946D01*
X70540Y-49932D01*
X70526Y-49903D01*
X70512Y-49889D01*
X70483Y-49875D01*
X70426Y-49875D01*
X70398Y-49889D01*
X70383Y-49903D01*
X70369Y-49932D01*
X70369Y-49946D01*
X70383Y-49975D01*
X70398Y-49989D01*
X70426Y-50003D01*
X70483Y-50003D01*
X70512Y-50017D01*
X70526Y-50032D01*
X70540Y-50060D01*
X70540Y-50117D01*
X70526Y-50146D01*
X70512Y-50160D01*
X70483Y-50175D01*
X70426Y-50175D01*
X70398Y-50160D01*
X70383Y-50146D01*
X70369Y-50117D01*
X70369Y-50060D01*
X70383Y-50032D01*
X70398Y-50017D01*
X70426Y-50003D01*
X75074Y-47616D02*
X75174Y-47473D01*
X75246Y-47616D02*
X75246Y-47316D01*
X75131Y-47316D01*
X75103Y-47330D01*
X75089Y-47344D01*
X75074Y-47373D01*
X75074Y-47416D01*
X75089Y-47444D01*
X75103Y-47458D01*
X75131Y-47473D01*
X75246Y-47473D01*
X74803Y-47316D02*
X74946Y-47316D01*
X74960Y-47458D01*
X74946Y-47444D01*
X74917Y-47430D01*
X74846Y-47430D01*
X74817Y-47444D01*
X74803Y-47458D01*
X74789Y-47487D01*
X74789Y-47558D01*
X74803Y-47587D01*
X74817Y-47601D01*
X74846Y-47616D01*
X74917Y-47616D01*
X74946Y-47601D01*
X74960Y-47587D01*
X74617Y-47444D02*
X74646Y-47430D01*
X74660Y-47416D01*
X74674Y-47387D01*
X74674Y-47373D01*
X74660Y-47344D01*
X74646Y-47330D01*
X74617Y-47316D01*
X74560Y-47316D01*
X74531Y-47330D01*
X74517Y-47344D01*
X74503Y-47373D01*
X74503Y-47387D01*
X74517Y-47416D01*
X74531Y-47430D01*
X74560Y-47444D01*
X74617Y-47444D01*
X74646Y-47458D01*
X74660Y-47473D01*
X74674Y-47501D01*
X74674Y-47558D01*
X74660Y-47587D01*
X74646Y-47601D01*
X74617Y-47616D01*
X74560Y-47616D01*
X74531Y-47601D01*
X74517Y-47587D01*
X74503Y-47558D01*
X74503Y-47501D01*
X74517Y-47473D01*
X74531Y-47458D01*
X74560Y-47444D01*
X75074Y-48217D02*
X75089Y-48231D01*
X75131Y-48245D01*
X75160Y-48245D01*
X75203Y-48231D01*
X75231Y-48203D01*
X75246Y-48174D01*
X75260Y-48117D01*
X75260Y-48074D01*
X75246Y-48017D01*
X75231Y-47988D01*
X75203Y-47960D01*
X75160Y-47945D01*
X75131Y-47945D01*
X75089Y-47960D01*
X75074Y-47974D01*
X74817Y-47945D02*
X74874Y-47945D01*
X74903Y-47960D01*
X74917Y-47974D01*
X74946Y-48017D01*
X74960Y-48074D01*
X74960Y-48188D01*
X74946Y-48217D01*
X74931Y-48231D01*
X74903Y-48245D01*
X74846Y-48245D01*
X74817Y-48231D01*
X74803Y-48217D01*
X74789Y-48188D01*
X74789Y-48117D01*
X74803Y-48088D01*
X74817Y-48074D01*
X74846Y-48060D01*
X74903Y-48060D01*
X74931Y-48074D01*
X74946Y-48088D01*
X74960Y-48117D01*
X74531Y-47945D02*
X74589Y-47945D01*
X74617Y-47960D01*
X74631Y-47974D01*
X74660Y-48017D01*
X74674Y-48074D01*
X74674Y-48188D01*
X74660Y-48217D01*
X74646Y-48231D01*
X74617Y-48245D01*
X74560Y-48245D01*
X74531Y-48231D01*
X74517Y-48217D01*
X74503Y-48188D01*
X74503Y-48117D01*
X74517Y-48088D01*
X74531Y-48074D01*
X74560Y-48060D01*
X74617Y-48060D01*
X74646Y-48074D01*
X74660Y-48088D01*
X74674Y-48117D01*
X71767Y-48099D02*
X71781Y-48113D01*
X71824Y-48127D01*
X71853Y-48127D01*
X71896Y-48113D01*
X71924Y-48084D01*
X71939Y-48056D01*
X71953Y-47999D01*
X71953Y-47956D01*
X71939Y-47899D01*
X71924Y-47870D01*
X71896Y-47842D01*
X71853Y-47827D01*
X71824Y-47827D01*
X71781Y-47842D01*
X71767Y-47856D01*
X71653Y-47856D02*
X71639Y-47842D01*
X71610Y-47827D01*
X71539Y-47827D01*
X71510Y-47842D01*
X71496Y-47856D01*
X71481Y-47884D01*
X71481Y-47913D01*
X71496Y-47956D01*
X71667Y-48127D01*
X71481Y-48127D01*
X71381Y-47827D02*
X71181Y-47827D01*
X71310Y-48127D01*
X70507Y-48099D02*
X70522Y-48113D01*
X70564Y-48127D01*
X70593Y-48127D01*
X70636Y-48113D01*
X70664Y-48084D01*
X70679Y-48056D01*
X70693Y-47999D01*
X70693Y-47956D01*
X70679Y-47899D01*
X70664Y-47870D01*
X70636Y-47842D01*
X70593Y-47827D01*
X70564Y-47827D01*
X70522Y-47842D01*
X70507Y-47856D01*
X70393Y-47856D02*
X70379Y-47842D01*
X70350Y-47827D01*
X70279Y-47827D01*
X70250Y-47842D01*
X70236Y-47856D01*
X70222Y-47884D01*
X70222Y-47913D01*
X70236Y-47956D01*
X70407Y-48127D01*
X70222Y-48127D01*
X70050Y-47956D02*
X70079Y-47942D01*
X70093Y-47927D01*
X70107Y-47899D01*
X70107Y-47884D01*
X70093Y-47856D01*
X70079Y-47842D01*
X70050Y-47827D01*
X69993Y-47827D01*
X69964Y-47842D01*
X69950Y-47856D01*
X69936Y-47884D01*
X69936Y-47899D01*
X69950Y-47927D01*
X69964Y-47942D01*
X69993Y-47956D01*
X70050Y-47956D01*
X70079Y-47970D01*
X70093Y-47984D01*
X70107Y-48013D01*
X70107Y-48070D01*
X70093Y-48099D01*
X70079Y-48113D01*
X70050Y-48127D01*
X69993Y-48127D01*
X69964Y-48113D01*
X69950Y-48099D01*
X69936Y-48070D01*
X69936Y-48013D01*
X69950Y-47984D01*
X69964Y-47970D01*
X69993Y-47956D01*
X69849Y-46528D02*
X69649Y-46828D01*
X69649Y-46528D02*
X69849Y-46828D01*
X69377Y-46828D02*
X69549Y-46828D01*
X69463Y-46828D02*
X69463Y-46528D01*
X69492Y-46571D01*
X69520Y-46600D01*
X69549Y-46614D01*
X69348Y-44925D02*
X69205Y-44825D01*
X69348Y-44753D02*
X69048Y-44753D01*
X69048Y-44868D01*
X69062Y-44896D01*
X69076Y-44910D01*
X69105Y-44925D01*
X69148Y-44925D01*
X69176Y-44910D01*
X69191Y-44896D01*
X69205Y-44868D01*
X69205Y-44753D01*
X69348Y-45210D02*
X69348Y-45039D01*
X69348Y-45125D02*
X69048Y-45125D01*
X69091Y-45096D01*
X69119Y-45068D01*
X69134Y-45039D01*
X69048Y-45310D02*
X69048Y-45510D01*
X69348Y-45382D01*
X71238Y-44925D02*
X71095Y-44825D01*
X71238Y-44753D02*
X70938Y-44753D01*
X70938Y-44868D01*
X70952Y-44896D01*
X70966Y-44910D01*
X70995Y-44925D01*
X71038Y-44925D01*
X71066Y-44910D01*
X71080Y-44896D01*
X71095Y-44868D01*
X71095Y-44753D01*
X70966Y-45039D02*
X70952Y-45053D01*
X70938Y-45082D01*
X70938Y-45153D01*
X70952Y-45182D01*
X70966Y-45196D01*
X70995Y-45210D01*
X71023Y-45210D01*
X71066Y-45196D01*
X71238Y-45025D01*
X71238Y-45210D01*
X71238Y-45496D02*
X71238Y-45325D01*
X71238Y-45410D02*
X70938Y-45410D01*
X70980Y-45382D01*
X71009Y-45353D01*
X71023Y-45325D01*
X73421Y-44387D02*
X73521Y-44244D01*
X73592Y-44387D02*
X73592Y-44087D01*
X73478Y-44087D01*
X73449Y-44101D01*
X73435Y-44116D01*
X73421Y-44144D01*
X73421Y-44187D01*
X73435Y-44216D01*
X73449Y-44230D01*
X73478Y-44244D01*
X73592Y-44244D01*
X73306Y-44116D02*
X73292Y-44101D01*
X73264Y-44087D01*
X73192Y-44087D01*
X73164Y-44101D01*
X73149Y-44116D01*
X73135Y-44144D01*
X73135Y-44173D01*
X73149Y-44216D01*
X73321Y-44387D01*
X73135Y-44387D01*
X72992Y-44387D02*
X72935Y-44387D01*
X72906Y-44373D01*
X72892Y-44359D01*
X72864Y-44316D01*
X72849Y-44259D01*
X72849Y-44144D01*
X72864Y-44116D01*
X72878Y-44101D01*
X72906Y-44087D01*
X72964Y-44087D01*
X72992Y-44101D01*
X73006Y-44116D01*
X73021Y-44144D01*
X73021Y-44216D01*
X73006Y-44244D01*
X72992Y-44259D01*
X72964Y-44273D01*
X72906Y-44273D01*
X72878Y-44259D01*
X72864Y-44244D01*
X72849Y-44216D01*
X72215Y-44387D02*
X72315Y-44244D01*
X72386Y-44387D02*
X72386Y-44087D01*
X72272Y-44087D01*
X72243Y-44101D01*
X72229Y-44116D01*
X72215Y-44144D01*
X72215Y-44187D01*
X72229Y-44216D01*
X72243Y-44230D01*
X72272Y-44244D01*
X72386Y-44244D01*
X71929Y-44387D02*
X72101Y-44387D01*
X72015Y-44387D02*
X72015Y-44087D01*
X72043Y-44130D01*
X72072Y-44159D01*
X72101Y-44173D01*
X74051Y-46248D02*
X74065Y-46263D01*
X74108Y-46277D01*
X74136Y-46277D01*
X74179Y-46263D01*
X74208Y-46234D01*
X74222Y-46206D01*
X74236Y-46148D01*
X74236Y-46106D01*
X74222Y-46048D01*
X74208Y-46020D01*
X74179Y-45991D01*
X74136Y-45977D01*
X74108Y-45977D01*
X74065Y-45991D01*
X74051Y-46006D01*
X73779Y-45977D02*
X73922Y-45977D01*
X73936Y-46120D01*
X73922Y-46106D01*
X73893Y-46091D01*
X73822Y-46091D01*
X73793Y-46106D01*
X73779Y-46120D01*
X73765Y-46148D01*
X73765Y-46220D01*
X73779Y-46248D01*
X73793Y-46263D01*
X73822Y-46277D01*
X73893Y-46277D01*
X73922Y-46263D01*
X73936Y-46248D01*
X73493Y-45977D02*
X73636Y-45977D01*
X73651Y-46120D01*
X73636Y-46106D01*
X73608Y-46091D01*
X73536Y-46091D01*
X73508Y-46106D01*
X73493Y-46120D01*
X73479Y-46148D01*
X73479Y-46220D01*
X73493Y-46248D01*
X73508Y-46263D01*
X73536Y-46277D01*
X73608Y-46277D01*
X73636Y-46263D01*
X73651Y-46248D01*
X74759Y-44359D02*
X74774Y-44373D01*
X74816Y-44387D01*
X74845Y-44387D01*
X74888Y-44373D01*
X74916Y-44344D01*
X74931Y-44316D01*
X74945Y-44259D01*
X74945Y-44216D01*
X74931Y-44159D01*
X74916Y-44130D01*
X74888Y-44101D01*
X74845Y-44087D01*
X74816Y-44087D01*
X74774Y-44101D01*
X74759Y-44116D01*
X74488Y-44087D02*
X74631Y-44087D01*
X74645Y-44230D01*
X74631Y-44216D01*
X74602Y-44201D01*
X74531Y-44201D01*
X74502Y-44216D01*
X74488Y-44230D01*
X74474Y-44259D01*
X74474Y-44330D01*
X74488Y-44359D01*
X74502Y-44373D01*
X74531Y-44387D01*
X74602Y-44387D01*
X74631Y-44373D01*
X74645Y-44359D01*
X74359Y-44116D02*
X74345Y-44101D01*
X74316Y-44087D01*
X74245Y-44087D01*
X74216Y-44101D01*
X74202Y-44116D01*
X74188Y-44144D01*
X74188Y-44173D01*
X74202Y-44216D01*
X74374Y-44387D01*
X74188Y-44387D01*
X84247Y-43364D02*
X84347Y-43221D01*
X84419Y-43364D02*
X84419Y-43064D01*
X84305Y-43064D01*
X84276Y-43078D01*
X84262Y-43092D01*
X84247Y-43121D01*
X84247Y-43164D01*
X84262Y-43192D01*
X84276Y-43206D01*
X84305Y-43221D01*
X84419Y-43221D01*
X83976Y-43064D02*
X84119Y-43064D01*
X84133Y-43206D01*
X84119Y-43192D01*
X84090Y-43178D01*
X84019Y-43178D01*
X83990Y-43192D01*
X83976Y-43206D01*
X83962Y-43235D01*
X83962Y-43306D01*
X83976Y-43335D01*
X83990Y-43349D01*
X84019Y-43364D01*
X84090Y-43364D01*
X84119Y-43349D01*
X84133Y-43335D01*
X83705Y-43064D02*
X83762Y-43064D01*
X83790Y-43078D01*
X83805Y-43092D01*
X83833Y-43135D01*
X83847Y-43192D01*
X83847Y-43306D01*
X83833Y-43335D01*
X83819Y-43349D01*
X83790Y-43364D01*
X83733Y-43364D01*
X83705Y-43349D01*
X83690Y-43335D01*
X83676Y-43306D01*
X83676Y-43235D01*
X83690Y-43206D01*
X83705Y-43192D01*
X83733Y-43178D01*
X83790Y-43178D01*
X83819Y-43192D01*
X83833Y-43206D01*
X83847Y-43235D01*
X86216Y-43364D02*
X86316Y-43221D01*
X86387Y-43364D02*
X86387Y-43064D01*
X86273Y-43064D01*
X86245Y-43078D01*
X86230Y-43092D01*
X86216Y-43121D01*
X86216Y-43164D01*
X86230Y-43192D01*
X86245Y-43206D01*
X86273Y-43221D01*
X86387Y-43221D01*
X86102Y-43092D02*
X86087Y-43078D01*
X86059Y-43064D01*
X85987Y-43064D01*
X85959Y-43078D01*
X85945Y-43092D01*
X85930Y-43121D01*
X85930Y-43149D01*
X85945Y-43192D01*
X86116Y-43364D01*
X85930Y-43364D01*
X85830Y-43064D02*
X85630Y-43064D01*
X85759Y-43364D01*
X69165Y-43615D02*
X69165Y-43858D01*
X69151Y-43886D01*
X69137Y-43900D01*
X69108Y-43915D01*
X69051Y-43915D01*
X69022Y-43900D01*
X69008Y-43886D01*
X68994Y-43858D01*
X68994Y-43615D01*
X68708Y-43615D02*
X68851Y-43615D01*
X68865Y-43758D01*
X68851Y-43743D01*
X68822Y-43729D01*
X68751Y-43729D01*
X68722Y-43743D01*
X68708Y-43758D01*
X68694Y-43786D01*
X68694Y-43858D01*
X68708Y-43886D01*
X68722Y-43900D01*
X68751Y-43915D01*
X68822Y-43915D01*
X68851Y-43900D01*
X68865Y-43886D01*
X71531Y-36288D02*
X71545Y-36302D01*
X71588Y-36316D01*
X71617Y-36316D01*
X71660Y-36302D01*
X71688Y-36273D01*
X71702Y-36245D01*
X71717Y-36188D01*
X71717Y-36145D01*
X71702Y-36088D01*
X71688Y-36059D01*
X71660Y-36031D01*
X71617Y-36016D01*
X71588Y-36016D01*
X71545Y-36031D01*
X71531Y-36045D01*
X71260Y-36016D02*
X71402Y-36016D01*
X71417Y-36159D01*
X71402Y-36145D01*
X71374Y-36131D01*
X71302Y-36131D01*
X71274Y-36145D01*
X71260Y-36159D01*
X71245Y-36188D01*
X71245Y-36259D01*
X71260Y-36288D01*
X71274Y-36302D01*
X71302Y-36316D01*
X71374Y-36316D01*
X71402Y-36302D01*
X71417Y-36288D01*
X70988Y-36016D02*
X71045Y-36016D01*
X71074Y-36031D01*
X71088Y-36045D01*
X71117Y-36088D01*
X71131Y-36145D01*
X71131Y-36259D01*
X71117Y-36288D01*
X71102Y-36302D01*
X71074Y-36316D01*
X71017Y-36316D01*
X70988Y-36302D01*
X70974Y-36288D01*
X70960Y-36259D01*
X70960Y-36188D01*
X70974Y-36159D01*
X70988Y-36145D01*
X71017Y-36131D01*
X71074Y-36131D01*
X71102Y-36145D01*
X71117Y-36159D01*
X71131Y-36188D01*
X72240Y-38059D02*
X72254Y-38074D01*
X72297Y-38088D01*
X72325Y-38088D01*
X72368Y-38074D01*
X72397Y-38045D01*
X72411Y-38017D01*
X72425Y-37959D01*
X72425Y-37917D01*
X72411Y-37859D01*
X72397Y-37831D01*
X72368Y-37802D01*
X72325Y-37788D01*
X72297Y-37788D01*
X72254Y-37802D01*
X72240Y-37817D01*
X71968Y-37788D02*
X72111Y-37788D01*
X72125Y-37931D01*
X72111Y-37917D01*
X72082Y-37902D01*
X72011Y-37902D01*
X71982Y-37917D01*
X71968Y-37931D01*
X71954Y-37959D01*
X71954Y-38031D01*
X71968Y-38059D01*
X71982Y-38074D01*
X72011Y-38088D01*
X72082Y-38088D01*
X72111Y-38074D01*
X72125Y-38059D01*
X71854Y-37788D02*
X71668Y-37788D01*
X71768Y-37902D01*
X71725Y-37902D01*
X71697Y-37917D01*
X71682Y-37931D01*
X71668Y-37959D01*
X71668Y-38031D01*
X71682Y-38059D01*
X71697Y-38074D01*
X71725Y-38088D01*
X71811Y-38088D01*
X71840Y-38074D01*
X71854Y-38059D01*
X73560Y-35279D02*
X73418Y-35179D01*
X73560Y-35108D02*
X73260Y-35108D01*
X73260Y-35222D01*
X73275Y-35251D01*
X73289Y-35265D01*
X73318Y-35279D01*
X73360Y-35279D01*
X73389Y-35265D01*
X73403Y-35251D01*
X73418Y-35222D01*
X73418Y-35108D01*
X73560Y-35565D02*
X73560Y-35393D01*
X73560Y-35479D02*
X73260Y-35479D01*
X73303Y-35451D01*
X73332Y-35422D01*
X73346Y-35393D01*
X73260Y-35751D02*
X73260Y-35779D01*
X73275Y-35808D01*
X73289Y-35822D01*
X73318Y-35836D01*
X73375Y-35851D01*
X73446Y-35851D01*
X73503Y-35836D01*
X73532Y-35822D01*
X73546Y-35808D01*
X73560Y-35779D01*
X73560Y-35751D01*
X73546Y-35722D01*
X73532Y-35708D01*
X73503Y-35693D01*
X73446Y-35679D01*
X73375Y-35679D01*
X73318Y-35693D01*
X73289Y-35708D01*
X73275Y-35722D01*
X73260Y-35751D01*
X73532Y-36539D02*
X73546Y-36525D01*
X73560Y-36482D01*
X73560Y-36453D01*
X73546Y-36410D01*
X73518Y-36382D01*
X73489Y-36367D01*
X73432Y-36353D01*
X73389Y-36353D01*
X73332Y-36367D01*
X73303Y-36382D01*
X73275Y-36410D01*
X73260Y-36453D01*
X73260Y-36482D01*
X73275Y-36525D01*
X73289Y-36539D01*
X73289Y-36653D02*
X73275Y-36667D01*
X73260Y-36696D01*
X73260Y-36767D01*
X73275Y-36796D01*
X73289Y-36810D01*
X73318Y-36825D01*
X73346Y-36825D01*
X73389Y-36810D01*
X73560Y-36639D01*
X73560Y-36825D01*
X73289Y-36939D02*
X73275Y-36953D01*
X73260Y-36982D01*
X73260Y-37053D01*
X73275Y-37082D01*
X73289Y-37096D01*
X73318Y-37110D01*
X73346Y-37110D01*
X73389Y-37096D01*
X73560Y-36925D01*
X73560Y-37110D01*
X75192Y-37694D02*
X75292Y-37551D01*
X75364Y-37694D02*
X75364Y-37394D01*
X75250Y-37394D01*
X75221Y-37409D01*
X75207Y-37423D01*
X75192Y-37451D01*
X75192Y-37494D01*
X75207Y-37523D01*
X75221Y-37537D01*
X75250Y-37551D01*
X75364Y-37551D01*
X74907Y-37694D02*
X75078Y-37694D01*
X74992Y-37694D02*
X74992Y-37394D01*
X75021Y-37437D01*
X75050Y-37466D01*
X75078Y-37480D01*
X74621Y-37694D02*
X74792Y-37694D01*
X74707Y-37694D02*
X74707Y-37394D01*
X74735Y-37437D01*
X74764Y-37466D01*
X74792Y-37480D01*
X76137Y-35371D02*
X76237Y-35229D01*
X76309Y-35371D02*
X76309Y-35071D01*
X76194Y-35071D01*
X76166Y-35086D01*
X76152Y-35100D01*
X76137Y-35129D01*
X76137Y-35171D01*
X76152Y-35200D01*
X76166Y-35214D01*
X76194Y-35229D01*
X76309Y-35229D01*
X75852Y-35371D02*
X76023Y-35371D01*
X75937Y-35371D02*
X75937Y-35071D01*
X75966Y-35114D01*
X75994Y-35143D01*
X76023Y-35157D01*
X75594Y-35171D02*
X75594Y-35371D01*
X75666Y-35057D02*
X75737Y-35271D01*
X75552Y-35271D01*
X74913Y-34993D02*
X74913Y-35236D01*
X74899Y-35264D01*
X74885Y-35278D01*
X74856Y-35293D01*
X74799Y-35293D01*
X74770Y-35278D01*
X74756Y-35264D01*
X74742Y-35236D01*
X74742Y-34993D01*
X74470Y-35093D02*
X74470Y-35293D01*
X74542Y-34978D02*
X74613Y-35193D01*
X74427Y-35193D01*
X77609Y-37379D02*
X77709Y-37236D01*
X77780Y-37379D02*
X77780Y-37079D01*
X77666Y-37079D01*
X77637Y-37094D01*
X77623Y-37108D01*
X77609Y-37136D01*
X77609Y-37179D01*
X77623Y-37208D01*
X77637Y-37222D01*
X77666Y-37236D01*
X77780Y-37236D01*
X77509Y-37079D02*
X77323Y-37079D01*
X77423Y-37194D01*
X77380Y-37194D01*
X77351Y-37208D01*
X77337Y-37222D01*
X77323Y-37251D01*
X77323Y-37322D01*
X77337Y-37351D01*
X77351Y-37365D01*
X77380Y-37379D01*
X77466Y-37379D01*
X77494Y-37365D01*
X77509Y-37351D01*
X77609Y-36749D02*
X77709Y-36607D01*
X77780Y-36749D02*
X77780Y-36449D01*
X77666Y-36449D01*
X77637Y-36464D01*
X77623Y-36478D01*
X77609Y-36507D01*
X77609Y-36549D01*
X77623Y-36578D01*
X77637Y-36592D01*
X77666Y-36607D01*
X77780Y-36607D01*
X77466Y-36749D02*
X77409Y-36749D01*
X77380Y-36735D01*
X77366Y-36721D01*
X77337Y-36678D01*
X77323Y-36621D01*
X77323Y-36507D01*
X77337Y-36478D01*
X77351Y-36464D01*
X77380Y-36449D01*
X77437Y-36449D01*
X77466Y-36464D01*
X77480Y-36478D01*
X77494Y-36507D01*
X77494Y-36578D01*
X77480Y-36607D01*
X77466Y-36621D01*
X77437Y-36635D01*
X77380Y-36635D01*
X77351Y-36621D01*
X77337Y-36607D01*
X77323Y-36578D01*
X79756Y-36213D02*
X79756Y-36456D01*
X79741Y-36485D01*
X79727Y-36499D01*
X79698Y-36513D01*
X79641Y-36513D01*
X79613Y-36499D01*
X79598Y-36485D01*
X79584Y-36456D01*
X79584Y-36213D01*
X79456Y-36242D02*
X79441Y-36227D01*
X79413Y-36213D01*
X79341Y-36213D01*
X79313Y-36227D01*
X79298Y-36242D01*
X79284Y-36270D01*
X79284Y-36299D01*
X79298Y-36342D01*
X79470Y-36513D01*
X79284Y-36513D01*
X79301Y-34742D02*
X79401Y-34599D01*
X79473Y-34742D02*
X79473Y-34442D01*
X79359Y-34442D01*
X79330Y-34456D01*
X79316Y-34470D01*
X79301Y-34499D01*
X79301Y-34542D01*
X79316Y-34570D01*
X79330Y-34584D01*
X79359Y-34599D01*
X79473Y-34599D01*
X79201Y-34442D02*
X79001Y-34442D01*
X79130Y-34742D01*
X80862Y-35647D02*
X80962Y-35504D01*
X81033Y-35647D02*
X81033Y-35347D01*
X80919Y-35347D01*
X80890Y-35361D01*
X80876Y-35376D01*
X80862Y-35404D01*
X80862Y-35447D01*
X80876Y-35476D01*
X80890Y-35490D01*
X80919Y-35504D01*
X81033Y-35504D01*
X80576Y-35647D02*
X80747Y-35647D01*
X80662Y-35647D02*
X80662Y-35347D01*
X80690Y-35390D01*
X80719Y-35418D01*
X80747Y-35433D01*
X80476Y-35347D02*
X80290Y-35347D01*
X80390Y-35461D01*
X80347Y-35461D01*
X80319Y-35476D01*
X80305Y-35490D01*
X80290Y-35518D01*
X80290Y-35590D01*
X80305Y-35618D01*
X80319Y-35633D01*
X80347Y-35647D01*
X80433Y-35647D01*
X80462Y-35633D01*
X80476Y-35618D01*
X81821Y-34151D02*
X81964Y-34151D01*
X81964Y-33851D01*
X81564Y-34151D02*
X81735Y-34151D01*
X81650Y-34151D02*
X81650Y-33851D01*
X81678Y-33894D01*
X81707Y-33922D01*
X81735Y-33937D01*
X83106Y-33099D02*
X83120Y-33113D01*
X83163Y-33127D01*
X83191Y-33127D01*
X83234Y-33113D01*
X83263Y-33084D01*
X83277Y-33056D01*
X83291Y-32999D01*
X83291Y-32956D01*
X83277Y-32899D01*
X83263Y-32870D01*
X83234Y-32842D01*
X83191Y-32827D01*
X83163Y-32827D01*
X83120Y-32842D01*
X83106Y-32856D01*
X82991Y-32856D02*
X82977Y-32842D01*
X82949Y-32827D01*
X82877Y-32827D01*
X82849Y-32842D01*
X82834Y-32856D01*
X82820Y-32884D01*
X82820Y-32913D01*
X82834Y-32956D01*
X83006Y-33127D01*
X82820Y-33127D01*
X82534Y-33127D02*
X82706Y-33127D01*
X82620Y-33127D02*
X82620Y-32827D01*
X82649Y-32870D01*
X82677Y-32899D01*
X82706Y-32913D01*
X83696Y-35067D02*
X83711Y-35082D01*
X83753Y-35096D01*
X83782Y-35096D01*
X83825Y-35082D01*
X83853Y-35053D01*
X83868Y-35024D01*
X83882Y-34967D01*
X83882Y-34924D01*
X83868Y-34867D01*
X83853Y-34839D01*
X83825Y-34810D01*
X83782Y-34796D01*
X83753Y-34796D01*
X83711Y-34810D01*
X83696Y-34824D01*
X83411Y-35096D02*
X83582Y-35096D01*
X83496Y-35096D02*
X83496Y-34796D01*
X83525Y-34839D01*
X83553Y-34867D01*
X83582Y-34882D01*
X83268Y-35096D02*
X83211Y-35096D01*
X83182Y-35082D01*
X83168Y-35067D01*
X83139Y-35024D01*
X83125Y-34967D01*
X83125Y-34853D01*
X83139Y-34824D01*
X83153Y-34810D01*
X83182Y-34796D01*
X83239Y-34796D01*
X83268Y-34810D01*
X83282Y-34824D01*
X83296Y-34853D01*
X83296Y-34924D01*
X83282Y-34953D01*
X83268Y-34967D01*
X83239Y-34982D01*
X83182Y-34982D01*
X83153Y-34967D01*
X83139Y-34953D01*
X83125Y-34924D01*
X80640Y-40175D02*
X80783Y-40175D01*
X80783Y-39875D01*
X80554Y-39903D02*
X80540Y-39889D01*
X80511Y-39875D01*
X80440Y-39875D01*
X80411Y-39889D01*
X80397Y-39903D01*
X80383Y-39932D01*
X80383Y-39960D01*
X80397Y-40003D01*
X80569Y-40175D01*
X80383Y-40175D01*
X83553Y-39595D02*
X83568Y-39609D01*
X83611Y-39623D01*
X83639Y-39623D01*
X83682Y-39609D01*
X83711Y-39581D01*
X83725Y-39552D01*
X83739Y-39495D01*
X83739Y-39452D01*
X83725Y-39395D01*
X83711Y-39366D01*
X83682Y-39338D01*
X83639Y-39323D01*
X83611Y-39323D01*
X83568Y-39338D01*
X83553Y-39352D01*
X83453Y-39323D02*
X83253Y-39323D01*
X83382Y-39623D01*
X84262Y-39516D02*
X84276Y-39530D01*
X84319Y-39545D01*
X84348Y-39545D01*
X84391Y-39530D01*
X84419Y-39502D01*
X84434Y-39473D01*
X84448Y-39416D01*
X84448Y-39373D01*
X84434Y-39316D01*
X84419Y-39288D01*
X84391Y-39259D01*
X84348Y-39245D01*
X84319Y-39245D01*
X84276Y-39259D01*
X84262Y-39273D01*
X84119Y-39545D02*
X84062Y-39545D01*
X84034Y-39530D01*
X84019Y-39516D01*
X83991Y-39473D01*
X83976Y-39416D01*
X83976Y-39302D01*
X83991Y-39273D01*
X84005Y-39259D01*
X84034Y-39245D01*
X84091Y-39245D01*
X84119Y-39259D01*
X84134Y-39273D01*
X84148Y-39302D01*
X84148Y-39373D01*
X84134Y-39402D01*
X84119Y-39416D01*
X84091Y-39430D01*
X84034Y-39430D01*
X84005Y-39416D01*
X83991Y-39402D01*
X83976Y-39373D01*
X85286Y-38797D02*
X85386Y-38654D01*
X85457Y-38797D02*
X85457Y-38497D01*
X85343Y-38497D01*
X85314Y-38511D01*
X85300Y-38525D01*
X85286Y-38554D01*
X85286Y-38597D01*
X85300Y-38625D01*
X85314Y-38639D01*
X85343Y-38654D01*
X85457Y-38654D01*
X85014Y-38497D02*
X85157Y-38497D01*
X85171Y-38639D01*
X85157Y-38625D01*
X85129Y-38611D01*
X85057Y-38611D01*
X85029Y-38625D01*
X85014Y-38639D01*
X85000Y-38668D01*
X85000Y-38739D01*
X85014Y-38768D01*
X85029Y-38782D01*
X85057Y-38797D01*
X85129Y-38797D01*
X85157Y-38782D01*
X85171Y-38768D01*
X84262Y-37666D02*
X84276Y-37680D01*
X84319Y-37694D01*
X84348Y-37694D01*
X84391Y-37680D01*
X84419Y-37651D01*
X84434Y-37623D01*
X84448Y-37566D01*
X84448Y-37523D01*
X84434Y-37466D01*
X84419Y-37437D01*
X84391Y-37409D01*
X84348Y-37394D01*
X84319Y-37394D01*
X84276Y-37409D01*
X84262Y-37423D01*
X84005Y-37494D02*
X84005Y-37694D01*
X84076Y-37380D02*
X84148Y-37594D01*
X83962Y-37594D01*
X84262Y-37036D02*
X84276Y-37050D01*
X84319Y-37064D01*
X84348Y-37064D01*
X84391Y-37050D01*
X84419Y-37021D01*
X84434Y-36993D01*
X84448Y-36936D01*
X84448Y-36893D01*
X84434Y-36836D01*
X84419Y-36807D01*
X84391Y-36779D01*
X84348Y-36764D01*
X84319Y-36764D01*
X84276Y-36779D01*
X84262Y-36793D01*
X84162Y-36764D02*
X83976Y-36764D01*
X84076Y-36879D01*
X84034Y-36879D01*
X84005Y-36893D01*
X83991Y-36907D01*
X83976Y-36936D01*
X83976Y-37007D01*
X83991Y-37036D01*
X84005Y-37050D01*
X84034Y-37064D01*
X84119Y-37064D01*
X84148Y-37050D01*
X84162Y-37036D01*
X84301Y-36159D02*
X84401Y-36016D01*
X84473Y-36159D02*
X84473Y-35859D01*
X84359Y-35859D01*
X84330Y-35873D01*
X84316Y-35887D01*
X84301Y-35916D01*
X84301Y-35959D01*
X84316Y-35987D01*
X84330Y-36002D01*
X84359Y-36016D01*
X84473Y-36016D01*
X84044Y-35959D02*
X84044Y-36159D01*
X84116Y-35845D02*
X84187Y-36059D01*
X84001Y-36059D01*
X84341Y-35568D02*
X84441Y-35425D01*
X84512Y-35568D02*
X84512Y-35268D01*
X84398Y-35268D01*
X84369Y-35283D01*
X84355Y-35297D01*
X84341Y-35325D01*
X84341Y-35368D01*
X84355Y-35397D01*
X84369Y-35411D01*
X84398Y-35425D01*
X84512Y-35425D01*
X84169Y-35397D02*
X84198Y-35383D01*
X84212Y-35368D01*
X84227Y-35340D01*
X84227Y-35325D01*
X84212Y-35297D01*
X84198Y-35283D01*
X84169Y-35268D01*
X84112Y-35268D01*
X84084Y-35283D01*
X84069Y-35297D01*
X84055Y-35325D01*
X84055Y-35340D01*
X84069Y-35368D01*
X84084Y-35383D01*
X84112Y-35397D01*
X84169Y-35397D01*
X84198Y-35411D01*
X84212Y-35425D01*
X84227Y-35454D01*
X84227Y-35511D01*
X84212Y-35540D01*
X84198Y-35554D01*
X84169Y-35568D01*
X84112Y-35568D01*
X84084Y-35554D01*
X84069Y-35540D01*
X84055Y-35511D01*
X84055Y-35454D01*
X84069Y-35425D01*
X84084Y-35411D01*
X84112Y-35397D01*
X84262Y-34910D02*
X84276Y-34924D01*
X84319Y-34938D01*
X84348Y-34938D01*
X84391Y-34924D01*
X84419Y-34896D01*
X84434Y-34867D01*
X84448Y-34810D01*
X84448Y-34767D01*
X84434Y-34710D01*
X84419Y-34681D01*
X84391Y-34653D01*
X84348Y-34638D01*
X84319Y-34638D01*
X84276Y-34653D01*
X84262Y-34667D01*
X84005Y-34638D02*
X84062Y-34638D01*
X84091Y-34653D01*
X84105Y-34667D01*
X84134Y-34710D01*
X84148Y-34767D01*
X84148Y-34881D01*
X84134Y-34910D01*
X84119Y-34924D01*
X84091Y-34938D01*
X84034Y-34938D01*
X84005Y-34924D01*
X83991Y-34910D01*
X83976Y-34881D01*
X83976Y-34810D01*
X83991Y-34781D01*
X84005Y-34767D01*
X84034Y-34753D01*
X84091Y-34753D01*
X84119Y-34767D01*
X84134Y-34781D01*
X84148Y-34810D01*
X84262Y-34280D02*
X84276Y-34294D01*
X84319Y-34308D01*
X84348Y-34308D01*
X84391Y-34294D01*
X84419Y-34266D01*
X84434Y-34237D01*
X84448Y-34180D01*
X84448Y-34137D01*
X84434Y-34080D01*
X84419Y-34051D01*
X84391Y-34023D01*
X84348Y-34008D01*
X84319Y-34008D01*
X84276Y-34023D01*
X84262Y-34037D01*
X83991Y-34008D02*
X84134Y-34008D01*
X84148Y-34151D01*
X84134Y-34137D01*
X84105Y-34123D01*
X84034Y-34123D01*
X84005Y-34137D01*
X83991Y-34151D01*
X83976Y-34180D01*
X83976Y-34251D01*
X83991Y-34280D01*
X84005Y-34294D01*
X84034Y-34308D01*
X84105Y-34308D01*
X84134Y-34294D01*
X84148Y-34280D01*
X84262Y-33679D02*
X84362Y-33536D01*
X84434Y-33679D02*
X84434Y-33379D01*
X84319Y-33379D01*
X84291Y-33393D01*
X84276Y-33407D01*
X84262Y-33436D01*
X84262Y-33479D01*
X84276Y-33507D01*
X84291Y-33521D01*
X84319Y-33536D01*
X84434Y-33536D01*
X84005Y-33379D02*
X84062Y-33379D01*
X84091Y-33393D01*
X84105Y-33407D01*
X84134Y-33450D01*
X84148Y-33507D01*
X84148Y-33621D01*
X84134Y-33650D01*
X84119Y-33664D01*
X84091Y-33679D01*
X84034Y-33679D01*
X84005Y-33664D01*
X83991Y-33650D01*
X83976Y-33621D01*
X83976Y-33550D01*
X83991Y-33521D01*
X84005Y-33507D01*
X84034Y-33493D01*
X84091Y-33493D01*
X84119Y-33507D01*
X84134Y-33521D01*
X84148Y-33550D01*
X77812Y-40870D02*
X77670Y-40770D01*
X77812Y-40698D02*
X77512Y-40698D01*
X77512Y-40812D01*
X77527Y-40841D01*
X77541Y-40855D01*
X77570Y-40870D01*
X77612Y-40870D01*
X77641Y-40855D01*
X77655Y-40841D01*
X77670Y-40812D01*
X77670Y-40698D01*
X77541Y-40984D02*
X77527Y-40998D01*
X77512Y-41027D01*
X77512Y-41098D01*
X77527Y-41127D01*
X77541Y-41141D01*
X77570Y-41155D01*
X77598Y-41155D01*
X77641Y-41141D01*
X77812Y-40970D01*
X77812Y-41155D01*
X77541Y-41270D02*
X77527Y-41284D01*
X77512Y-41312D01*
X77512Y-41384D01*
X77527Y-41412D01*
X77541Y-41427D01*
X77570Y-41441D01*
X77598Y-41441D01*
X77641Y-41427D01*
X77812Y-41255D01*
X77812Y-41441D01*
X75035Y-39634D02*
X75049Y-39648D01*
X75092Y-39663D01*
X75121Y-39663D01*
X75163Y-39648D01*
X75192Y-39620D01*
X75206Y-39591D01*
X75221Y-39534D01*
X75221Y-39491D01*
X75206Y-39434D01*
X75192Y-39406D01*
X75163Y-39377D01*
X75121Y-39363D01*
X75092Y-39363D01*
X75049Y-39377D01*
X75035Y-39391D01*
X74778Y-39463D02*
X74778Y-39663D01*
X74849Y-39348D02*
X74921Y-39563D01*
X74735Y-39563D01*
X74492Y-39463D02*
X74492Y-39663D01*
X74563Y-39348D02*
X74635Y-39563D01*
X74449Y-39563D01*
X75035Y-40303D02*
X75049Y-40318D01*
X75092Y-40332D01*
X75121Y-40332D01*
X75163Y-40318D01*
X75192Y-40289D01*
X75206Y-40261D01*
X75221Y-40203D01*
X75221Y-40161D01*
X75206Y-40103D01*
X75192Y-40075D01*
X75163Y-40046D01*
X75121Y-40032D01*
X75092Y-40032D01*
X75049Y-40046D01*
X75035Y-40061D01*
X74778Y-40132D02*
X74778Y-40332D01*
X74849Y-40018D02*
X74921Y-40232D01*
X74735Y-40232D01*
X74563Y-40032D02*
X74535Y-40032D01*
X74506Y-40046D01*
X74492Y-40061D01*
X74478Y-40089D01*
X74463Y-40146D01*
X74463Y-40218D01*
X74478Y-40275D01*
X74492Y-40303D01*
X74506Y-40318D01*
X74535Y-40332D01*
X74563Y-40332D01*
X74592Y-40318D01*
X74606Y-40303D01*
X74621Y-40275D01*
X74635Y-40218D01*
X74635Y-40146D01*
X74621Y-40089D01*
X74606Y-40061D01*
X74592Y-40046D01*
X74563Y-40032D01*
X75035Y-41052D02*
X75049Y-41066D01*
X75092Y-41080D01*
X75121Y-41080D01*
X75163Y-41066D01*
X75192Y-41037D01*
X75206Y-41009D01*
X75221Y-40952D01*
X75221Y-40909D01*
X75206Y-40852D01*
X75192Y-40823D01*
X75163Y-40794D01*
X75121Y-40780D01*
X75092Y-40780D01*
X75049Y-40794D01*
X75035Y-40809D01*
X74778Y-40880D02*
X74778Y-41080D01*
X74849Y-40766D02*
X74921Y-40980D01*
X74735Y-40980D01*
X74492Y-40780D02*
X74549Y-40780D01*
X74578Y-40794D01*
X74592Y-40809D01*
X74621Y-40852D01*
X74635Y-40909D01*
X74635Y-41023D01*
X74621Y-41052D01*
X74606Y-41066D01*
X74578Y-41080D01*
X74521Y-41080D01*
X74492Y-41066D01*
X74478Y-41052D01*
X74463Y-41023D01*
X74463Y-40952D01*
X74478Y-40923D01*
X74492Y-40909D01*
X74521Y-40894D01*
X74578Y-40894D01*
X74606Y-40909D01*
X74621Y-40923D01*
X74635Y-40952D01*
X75035Y-41760D02*
X75049Y-41774D01*
X75092Y-41789D01*
X75121Y-41789D01*
X75163Y-41774D01*
X75192Y-41746D01*
X75206Y-41717D01*
X75221Y-41660D01*
X75221Y-41617D01*
X75206Y-41560D01*
X75192Y-41532D01*
X75163Y-41503D01*
X75121Y-41489D01*
X75092Y-41489D01*
X75049Y-41503D01*
X75035Y-41517D01*
X74778Y-41589D02*
X74778Y-41789D01*
X74849Y-41474D02*
X74921Y-41689D01*
X74735Y-41689D01*
X74635Y-41517D02*
X74621Y-41503D01*
X74592Y-41489D01*
X74521Y-41489D01*
X74492Y-41503D01*
X74478Y-41517D01*
X74463Y-41546D01*
X74463Y-41574D01*
X74478Y-41617D01*
X74649Y-41789D01*
X74463Y-41789D01*
X75035Y-42469D02*
X75049Y-42483D01*
X75092Y-42497D01*
X75121Y-42497D01*
X75163Y-42483D01*
X75192Y-42455D01*
X75206Y-42426D01*
X75221Y-42369D01*
X75221Y-42326D01*
X75206Y-42269D01*
X75192Y-42240D01*
X75163Y-42212D01*
X75121Y-42197D01*
X75092Y-42197D01*
X75049Y-42212D01*
X75035Y-42226D01*
X74935Y-42197D02*
X74749Y-42197D01*
X74849Y-42312D01*
X74806Y-42312D01*
X74778Y-42326D01*
X74763Y-42340D01*
X74749Y-42369D01*
X74749Y-42440D01*
X74763Y-42469D01*
X74778Y-42483D01*
X74806Y-42497D01*
X74892Y-42497D01*
X74921Y-42483D01*
X74935Y-42469D01*
X74649Y-42197D02*
X74463Y-42197D01*
X74563Y-42312D01*
X74521Y-42312D01*
X74492Y-42326D01*
X74478Y-42340D01*
X74463Y-42369D01*
X74463Y-42440D01*
X74478Y-42469D01*
X74492Y-42483D01*
X74521Y-42497D01*
X74606Y-42497D01*
X74635Y-42483D01*
X74649Y-42469D01*
X75035Y-43099D02*
X75049Y-43113D01*
X75092Y-43127D01*
X75121Y-43127D01*
X75163Y-43113D01*
X75192Y-43084D01*
X75206Y-43056D01*
X75221Y-42999D01*
X75221Y-42956D01*
X75206Y-42899D01*
X75192Y-42870D01*
X75163Y-42842D01*
X75121Y-42827D01*
X75092Y-42827D01*
X75049Y-42842D01*
X75035Y-42856D01*
X74935Y-42827D02*
X74749Y-42827D01*
X74849Y-42942D01*
X74806Y-42942D01*
X74778Y-42956D01*
X74763Y-42970D01*
X74749Y-42999D01*
X74749Y-43070D01*
X74763Y-43099D01*
X74778Y-43113D01*
X74806Y-43127D01*
X74892Y-43127D01*
X74921Y-43113D01*
X74935Y-43099D01*
X74463Y-43127D02*
X74635Y-43127D01*
X74549Y-43127D02*
X74549Y-42827D01*
X74578Y-42870D01*
X74606Y-42899D01*
X74635Y-42913D01*
X66767Y-43245D02*
X66867Y-43103D01*
X66939Y-43245D02*
X66939Y-42945D01*
X66824Y-42945D01*
X66796Y-42960D01*
X66781Y-42974D01*
X66767Y-43003D01*
X66767Y-43045D01*
X66781Y-43074D01*
X66796Y-43088D01*
X66824Y-43103D01*
X66939Y-43103D01*
X66653Y-42974D02*
X66639Y-42960D01*
X66610Y-42945D01*
X66539Y-42945D01*
X66510Y-42960D01*
X66496Y-42974D01*
X66481Y-43003D01*
X66481Y-43031D01*
X66496Y-43074D01*
X66667Y-43245D01*
X66481Y-43245D01*
X66296Y-42945D02*
X66267Y-42945D01*
X66239Y-42960D01*
X66224Y-42974D01*
X66210Y-43003D01*
X66196Y-43060D01*
X66196Y-43131D01*
X66210Y-43188D01*
X66224Y-43217D01*
X66239Y-43231D01*
X66267Y-43245D01*
X66296Y-43245D01*
X66324Y-43231D01*
X66339Y-43217D01*
X66353Y-43188D01*
X66367Y-43131D01*
X66367Y-43060D01*
X66353Y-43003D01*
X66339Y-42974D01*
X66324Y-42960D01*
X66296Y-42945D01*
X66767Y-42616D02*
X66867Y-42473D01*
X66939Y-42616D02*
X66939Y-42316D01*
X66824Y-42316D01*
X66796Y-42330D01*
X66781Y-42344D01*
X66767Y-42373D01*
X66767Y-42416D01*
X66781Y-42444D01*
X66796Y-42458D01*
X66824Y-42473D01*
X66939Y-42473D01*
X66653Y-42344D02*
X66639Y-42330D01*
X66610Y-42316D01*
X66539Y-42316D01*
X66510Y-42330D01*
X66496Y-42344D01*
X66481Y-42373D01*
X66481Y-42401D01*
X66496Y-42444D01*
X66667Y-42616D01*
X66481Y-42616D01*
X66224Y-42416D02*
X66224Y-42616D01*
X66296Y-42301D02*
X66367Y-42516D01*
X66181Y-42516D01*
X66767Y-41986D02*
X66867Y-41843D01*
X66939Y-41986D02*
X66939Y-41686D01*
X66824Y-41686D01*
X66796Y-41700D01*
X66781Y-41714D01*
X66767Y-41743D01*
X66767Y-41786D01*
X66781Y-41814D01*
X66796Y-41828D01*
X66824Y-41843D01*
X66939Y-41843D01*
X66481Y-41986D02*
X66653Y-41986D01*
X66567Y-41986D02*
X66567Y-41686D01*
X66596Y-41728D01*
X66624Y-41757D01*
X66653Y-41771D01*
X66339Y-41986D02*
X66281Y-41986D01*
X66253Y-41971D01*
X66239Y-41957D01*
X66210Y-41914D01*
X66196Y-41857D01*
X66196Y-41743D01*
X66210Y-41714D01*
X66224Y-41700D01*
X66253Y-41686D01*
X66310Y-41686D01*
X66339Y-41700D01*
X66353Y-41714D01*
X66367Y-41743D01*
X66367Y-41814D01*
X66353Y-41843D01*
X66339Y-41857D01*
X66310Y-41871D01*
X66253Y-41871D01*
X66224Y-41857D01*
X66210Y-41843D01*
X66196Y-41814D01*
X66767Y-40855D02*
X66781Y-40869D01*
X66824Y-40883D01*
X66853Y-40883D01*
X66896Y-40869D01*
X66924Y-40840D01*
X66939Y-40812D01*
X66953Y-40755D01*
X66953Y-40712D01*
X66939Y-40655D01*
X66924Y-40626D01*
X66896Y-40598D01*
X66853Y-40583D01*
X66824Y-40583D01*
X66781Y-40598D01*
X66767Y-40612D01*
X66667Y-40583D02*
X66481Y-40583D01*
X66581Y-40698D01*
X66539Y-40698D01*
X66510Y-40712D01*
X66496Y-40726D01*
X66481Y-40755D01*
X66481Y-40826D01*
X66496Y-40855D01*
X66510Y-40869D01*
X66539Y-40883D01*
X66624Y-40883D01*
X66653Y-40869D01*
X66667Y-40855D01*
X66310Y-40712D02*
X66339Y-40698D01*
X66353Y-40683D01*
X66367Y-40655D01*
X66367Y-40640D01*
X66353Y-40612D01*
X66339Y-40598D01*
X66310Y-40583D01*
X66253Y-40583D01*
X66224Y-40598D01*
X66210Y-40612D01*
X66196Y-40640D01*
X66196Y-40655D01*
X66210Y-40683D01*
X66224Y-40698D01*
X66253Y-40712D01*
X66310Y-40712D01*
X66339Y-40726D01*
X66353Y-40740D01*
X66367Y-40769D01*
X66367Y-40826D01*
X66353Y-40855D01*
X66339Y-40869D01*
X66310Y-40883D01*
X66253Y-40883D01*
X66224Y-40869D01*
X66210Y-40855D01*
X66196Y-40826D01*
X66196Y-40769D01*
X66210Y-40740D01*
X66224Y-40726D01*
X66253Y-40712D01*
X66782Y-40253D02*
X66925Y-40253D01*
X66925Y-39953D01*
X66553Y-40053D02*
X66553Y-40253D01*
X66625Y-39939D02*
X66696Y-40153D01*
X66510Y-40153D01*
X66767Y-39555D02*
X66781Y-39570D01*
X66824Y-39584D01*
X66853Y-39584D01*
X66896Y-39570D01*
X66924Y-39541D01*
X66939Y-39513D01*
X66953Y-39455D01*
X66953Y-39413D01*
X66939Y-39355D01*
X66924Y-39327D01*
X66896Y-39298D01*
X66853Y-39284D01*
X66824Y-39284D01*
X66781Y-39298D01*
X66767Y-39313D01*
X66510Y-39384D02*
X66510Y-39584D01*
X66581Y-39270D02*
X66653Y-39484D01*
X66467Y-39484D01*
X66381Y-39284D02*
X66181Y-39284D01*
X66310Y-39584D01*
X66782Y-38954D02*
X66925Y-38954D01*
X66925Y-38654D01*
X66639Y-38783D02*
X66667Y-38768D01*
X66682Y-38754D01*
X66696Y-38726D01*
X66696Y-38711D01*
X66682Y-38683D01*
X66667Y-38668D01*
X66639Y-38654D01*
X66582Y-38654D01*
X66553Y-38668D01*
X66539Y-38683D01*
X66525Y-38711D01*
X66525Y-38726D01*
X66539Y-38754D01*
X66553Y-38768D01*
X66582Y-38783D01*
X66639Y-38783D01*
X66667Y-38797D01*
X66682Y-38811D01*
X66696Y-38840D01*
X66696Y-38897D01*
X66682Y-38926D01*
X66667Y-38940D01*
X66639Y-38954D01*
X66582Y-38954D01*
X66553Y-38940D01*
X66539Y-38926D01*
X66525Y-38897D01*
X66525Y-38840D01*
X66539Y-38811D01*
X66553Y-38797D01*
X66582Y-38783D01*
X66767Y-38256D02*
X66781Y-38271D01*
X66824Y-38285D01*
X66853Y-38285D01*
X66896Y-38271D01*
X66924Y-38242D01*
X66939Y-38213D01*
X66953Y-38156D01*
X66953Y-38113D01*
X66939Y-38056D01*
X66924Y-38028D01*
X66896Y-37999D01*
X66853Y-37985D01*
X66824Y-37985D01*
X66781Y-37999D01*
X66767Y-38013D01*
X66510Y-38085D02*
X66510Y-38285D01*
X66581Y-37971D02*
X66653Y-38185D01*
X66467Y-38185D01*
X66210Y-37985D02*
X66353Y-37985D01*
X66367Y-38128D01*
X66353Y-38113D01*
X66324Y-38099D01*
X66253Y-38099D01*
X66224Y-38113D01*
X66210Y-38128D01*
X66196Y-38156D01*
X66196Y-38228D01*
X66210Y-38256D01*
X66224Y-38271D01*
X66253Y-38285D01*
X66324Y-38285D01*
X66353Y-38271D01*
X66367Y-38256D01*
X66782Y-37655D02*
X66925Y-37655D01*
X66925Y-37355D01*
X66539Y-37355D02*
X66682Y-37355D01*
X66696Y-37498D01*
X66682Y-37483D01*
X66653Y-37469D01*
X66582Y-37469D01*
X66553Y-37483D01*
X66539Y-37498D01*
X66525Y-37526D01*
X66525Y-37598D01*
X66539Y-37626D01*
X66553Y-37641D01*
X66582Y-37655D01*
X66653Y-37655D01*
X66682Y-37641D01*
X66696Y-37626D01*
X87504Y-33679D02*
X87504Y-33379D01*
X87390Y-33379D01*
X87362Y-33393D01*
X87347Y-33407D01*
X87333Y-33436D01*
X87333Y-33479D01*
X87347Y-33507D01*
X87362Y-33521D01*
X87390Y-33536D01*
X87504Y-33536D01*
X87233Y-33379D02*
X87047Y-33379D01*
X87147Y-33493D01*
X87104Y-33493D01*
X87076Y-33507D01*
X87062Y-33521D01*
X87047Y-33550D01*
X87047Y-33621D01*
X87062Y-33650D01*
X87076Y-33664D01*
X87104Y-33679D01*
X87190Y-33679D01*
X87219Y-33664D01*
X87233Y-33650D01*
X86366Y-34438D02*
X86381Y-34424D01*
X86395Y-34381D01*
X86395Y-34352D01*
X86381Y-34309D01*
X86352Y-34281D01*
X86324Y-34267D01*
X86266Y-34252D01*
X86224Y-34252D01*
X86166Y-34267D01*
X86138Y-34281D01*
X86109Y-34309D01*
X86095Y-34352D01*
X86095Y-34381D01*
X86109Y-34424D01*
X86124Y-34438D01*
X86395Y-34567D02*
X86095Y-34567D01*
X86238Y-34567D02*
X86238Y-34738D01*
X86395Y-34738D02*
X86095Y-34738D01*
X86395Y-35038D02*
X86395Y-34867D01*
X86395Y-34952D02*
X86095Y-34952D01*
X86138Y-34924D01*
X86166Y-34895D01*
X86181Y-34867D01*
X87504Y-36434D02*
X87504Y-36134D01*
X87390Y-36134D01*
X87362Y-36149D01*
X87347Y-36163D01*
X87333Y-36192D01*
X87333Y-36234D01*
X87347Y-36263D01*
X87362Y-36277D01*
X87390Y-36292D01*
X87504Y-36292D01*
X87076Y-36234D02*
X87076Y-36434D01*
X87147Y-36120D02*
X87219Y-36334D01*
X87033Y-36334D01*
X86366Y-37194D02*
X86381Y-37180D01*
X86395Y-37137D01*
X86395Y-37108D01*
X86381Y-37065D01*
X86352Y-37037D01*
X86324Y-37023D01*
X86266Y-37008D01*
X86224Y-37008D01*
X86166Y-37023D01*
X86138Y-37037D01*
X86109Y-37065D01*
X86095Y-37108D01*
X86095Y-37137D01*
X86109Y-37180D01*
X86124Y-37194D01*
X86395Y-37323D02*
X86095Y-37323D01*
X86238Y-37323D02*
X86238Y-37494D01*
X86395Y-37494D02*
X86095Y-37494D01*
X86124Y-37623D02*
X86109Y-37637D01*
X86095Y-37665D01*
X86095Y-37737D01*
X86109Y-37765D01*
X86124Y-37780D01*
X86152Y-37794D01*
X86181Y-37794D01*
X86224Y-37780D01*
X86395Y-37608D01*
X86395Y-37794D01*
X87504Y-39190D02*
X87504Y-38890D01*
X87390Y-38890D01*
X87362Y-38905D01*
X87347Y-38919D01*
X87333Y-38947D01*
X87333Y-38990D01*
X87347Y-39019D01*
X87362Y-39033D01*
X87390Y-39047D01*
X87504Y-39047D01*
X87062Y-38890D02*
X87204Y-38890D01*
X87219Y-39033D01*
X87204Y-39019D01*
X87176Y-39005D01*
X87104Y-39005D01*
X87076Y-39019D01*
X87062Y-39033D01*
X87047Y-39062D01*
X87047Y-39133D01*
X87062Y-39162D01*
X87076Y-39176D01*
X87104Y-39190D01*
X87176Y-39190D01*
X87204Y-39176D01*
X87219Y-39162D01*
X86366Y-39950D02*
X86381Y-39936D01*
X86395Y-39893D01*
X86395Y-39864D01*
X86381Y-39821D01*
X86352Y-39793D01*
X86324Y-39778D01*
X86266Y-39764D01*
X86224Y-39764D01*
X86166Y-39778D01*
X86138Y-39793D01*
X86109Y-39821D01*
X86095Y-39864D01*
X86095Y-39893D01*
X86109Y-39936D01*
X86124Y-39950D01*
X86395Y-40078D02*
X86095Y-40078D01*
X86238Y-40078D02*
X86238Y-40250D01*
X86395Y-40250D02*
X86095Y-40250D01*
X86095Y-40364D02*
X86095Y-40550D01*
X86209Y-40450D01*
X86209Y-40493D01*
X86224Y-40521D01*
X86238Y-40536D01*
X86266Y-40550D01*
X86338Y-40550D01*
X86366Y-40536D01*
X86381Y-40521D01*
X86395Y-40493D01*
X86395Y-40407D01*
X86381Y-40378D01*
X86366Y-40364D01*
M02*
